<?xml version="1.0" encoding="UTF-8" standalone="no"?>
<!-- Created with Inkscape (http://www.inkscape.org/) -->

<svg
   version="1.1"
   id="svg1"
   width="417.33334"
   height="304"
   viewBox="0 0 417.33334 304"
   sodipodi:docname="biased_tales.svg"
   inkscape:version="1.4 (e7c3feb100, 2024-10-09)"
   xmlns:inkscape="http://www.inkscape.org/namespaces/inkscape"
   xmlns:sodipodi="http://sodipodi.sourceforge.net/DTD/sodipodi-0.dtd"
   xmlns="http://www.w3.org/2000/svg"
   xmlns:svg="http://www.w3.org/2000/svg">
  <defs
     id="defs1">
    <clipPath
       clipPathUnits="userSpaceOnUse"
       id="clipPath1">
      <path
         d="M 0,0 H 313 V 228 H 0 Z"
         id="path1" />
    </clipPath>
    <clipPath
       clipPathUnits="userSpaceOnUse"
       id="clipPath3">
      <path
         d="M 0.105,0 H 313 V 228 H 0.105 Z"
         transform="scale(1.3333333)"
         id="path3" />
    </clipPath>
    <clipPath
       clipPathUnits="userSpaceOnUse"
       id="clipPath4">
      <path
         d="M 0,0 H 313 V 228 H 0 Z"
         transform="matrix(0,-1.1199663,-1,0,0,0)"
         id="path4" />
    </clipPath>
    <clipPath
       clipPathUnits="userSpaceOnUse"
       id="clipPath6">
      <path
         d="M 5.207,0.121 H 291.801 V 228 H 5.207 Z"
         transform="scale(1.3333333)"
         id="path6" />
    </clipPath>
    <clipPath
       clipPathUnits="userSpaceOnUse"
       id="clipPath7">
      <path
         d="M 0,0 H 313 V 228 H 0 Z"
         id="path7" />
    </clipPath>
    <clipPath
       clipPathUnits="userSpaceOnUse"
       id="clipPath9">
      <path
         d="M 144.699,0 H 245.387 V 197.066 H 144.699 Z"
         transform="scale(1.3333333)"
         id="path9" />
    </clipPath>
    <clipPath
       clipPathUnits="userSpaceOnUse"
       id="clipPath10">
      <path
         d="M 0,0 H 313 V 228 H 0 Z"
         transform="matrix(0,1.0015063,-1,0,0,0)"
         id="path10" />
    </clipPath>
    <clipPath
       clipPathUnits="userSpaceOnUse"
       id="clipPath12">
      <path
         d="M 0,0.121 H 313 V 228 H 0 Z"
         transform="scale(1.3333333)"
         id="path12" />
    </clipPath>
    <clipPath
       clipPathUnits="userSpaceOnUse"
       id="clipPath13">
      <path
         d="M 0,0 H 313 V 228 H 0 Z"
         id="path13" />
    </clipPath>
    <clipPath
       clipPathUnits="userSpaceOnUse"
       id="clipPath15">
      <path
         d="M 0,0 H 313 V 228 H 0 Z"
         transform="matrix(0,1.0015063,-1,0,0,0)"
         id="path15" />
    </clipPath>
    <clipPath
       clipPathUnits="userSpaceOnUse"
       id="clipPath17">
      <path
         d="M 0,0.121 H 313 V 228 H 0 Z"
         transform="scale(1.3333333)"
         id="path17" />
    </clipPath>
    <clipPath
       clipPathUnits="userSpaceOnUse"
       id="clipPath18">
      <path
         d="M 0,0 H 313 V 228 H 0 Z"
         id="path18" />
    </clipPath>
    <clipPath
       clipPathUnits="userSpaceOnUse"
       id="clipPath88">
      <path
         d="M 0,0 H 313 V 228 H 0 Z"
         transform="matrix(0,-1.1199663,-1,0,0,0)"
         id="path88" />
    </clipPath>
    <clipPath
       clipPathUnits="userSpaceOnUse"
       id="clipPath90">
      <path
         d="M 5.207,121.895 H 291.801 V 228 H 5.207 Z"
         transform="scale(1.3333333)"
         id="path90" />
    </clipPath>
    <clipPath
       clipPathUnits="userSpaceOnUse"
       id="clipPath91">
      <path
         d="M 0,0 H 313 V 228 H 0 Z"
         id="path91" />
    </clipPath>
    <clipPath
       clipPathUnits="userSpaceOnUse"
       id="clipPath93">
      <path
         d="m 164.816,76.793 h 39.727 V 228 h -39.727 z"
         transform="scale(1.3333333)"
         id="path93" />
    </clipPath>
  </defs>
  <sodipodi:namedview
     id="namedview1"
     pagecolor="#ffffff"
     bordercolor="#000000"
     borderopacity="0.25"
     inkscape:showpageshadow="2"
     inkscape:pageopacity="0.0"
     inkscape:pagecheckerboard="0"
     inkscape:deskcolor="#d1d1d1"
     inkscape:zoom="2.8355263"
     inkscape:cx="208.77958"
     inkscape:cy="152"
     inkscape:window-width="2560"
     inkscape:window-height="1011"
     inkscape:window-x="0"
     inkscape:window-y="0"
     inkscape:window-maximized="1"
     inkscape:current-layer="g1">
    <inkscape:page
       x="0"
       y="0"
       id="page1"
       width="417.33334"
       height="304"
       margin="0"
       bleed="0" />
  </sodipodi:namedview>
  <g
     id="g1"
     inkscape:groupmode="layer"
     inkscape:label="">
    <g
       id="g2"
       clip-path="url(#clipPath3)">
      <path
         d="m 1.5,119.02 h 1.93 v 1.285 H 1.5 m 3.855,-1.285 h 1.926 v 1.285 H 5.355 m 3.852,-1.285 h 1.93 v 1.285 h -1.93 m 3.855,-1.285 h 1.926 v 1.285 h -1.926 m 3.852,-1.285 h 1.93 v 1.285 h -1.93 m 3.856,-1.285 h 1.925 v 1.285 H 20.77 m 3.855,-1.285 h 1.926 v 1.285 h -1.926 m 3.852,-1.285 h 1.925 v 1.285 h -1.925 m 3.855,-1.285 h 1.926 v 1.285 h -1.926 m 3.852,-1.285 h 1.925 v 1.285 h -1.925 m 3.855,-1.285 h 1.926 v 1.285 h -1.926 m 3.852,-1.285 h 1.925 v 1.285 h -1.925 m 3.855,-1.285 h 1.926 v 1.285 h -1.926 m 3.852,-1.285 h 1.929 v 1.285 h -1.929 m 3.855,-1.285 h 1.926 v 1.285 h -1.926 m 3.852,-1.285 h 1.929 v 1.285 h -1.929 m 3.855,-1.285 h 1.926 v 1.285 H 63.16 m 3.852,-1.285 h 1.929 v 1.285 h -1.929 m 3.855,-1.285 h 1.926 v 1.285 h -1.926 m 3.856,-1.285 h 1.925 v 1.285 h -1.925 m 3.851,-1.285 H 80.5 v 1.285 h -1.926 m 3.856,-1.285 h 1.925 v 1.285 H 82.43 m 3.851,-1.285 h 1.926 v 1.285 h -1.926 m 3.856,-1.285 h 1.925 v 1.285 h -1.925 m 3.851,-1.285 h 1.93 v 1.285 h -1.93 m 3.856,-1.285 h 1.926 v 1.285 h -1.926 m 3.851,-1.285 h 1.93 v 1.285 h -1.93 m 3.856,-1.285 h 1.926 v 1.285 h -1.926 m 3.851,-1.285 h 1.93 v 1.285 h -1.93 m 3.856,-1.285 h 1.926 v 1.285 h -1.926 m 3.851,-1.285 h 1.93 v 1.285 h -1.93 m 3.856,-1.285 h 1.926 v 1.285 h -1.926 m 3.855,-1.285 h 1.926 v 1.285 h -1.926 m 3.852,-1.285 h 1.926 v 1.285 h -1.926 m 3.855,-1.285 h 1.926 v 1.285 h -1.926 m 3.852,-1.285 h 1.926 v 1.285 h -1.926 m 3.855,-1.285 h 1.926 v 1.285 h -1.926 m 3.852,-1.285 h 1.93 v 1.285 h -1.93 m 3.855,-1.285 h 1.926 v 1.285 h -1.926 m 3.852,-1.285 h 1.93 v 1.285 h -1.93 m 3.855,-1.285 h 1.926 v 1.285 h -1.926 m 3.852,-1.285 h 1.93 v 1.285 h -1.93 m 3.855,-1.285 h 1.926 v 1.285 h -1.926 m 3.852,-1.285 h 1.93 v 1.285 h -1.93 m 3.855,-1.285 h 1.926 v 1.285 h -1.926 m 3.856,-1.285 h 1.926 v 1.285 h -1.926 m 3.852,-1.285 h 1.925 v 1.285 h -1.925 m 3.855,-1.285 h 1.926 v 1.285 h -1.926 m 3.852,-1.285 h 1.925 v 1.285 h -1.925 m 3.855,-1.285 h 1.926 v 1.285 h -1.926 m 3.852,-1.285 h 1.929 v 1.285 h -1.929 m 3.855,-1.285 h 1.926 v 1.285 h -1.926 m 3.852,-1.285 h 1.929 v 1.285 h -1.929 m 3.855,-1.285 h 1.926 v 1.285 h -1.926 m 3.852,-1.285 h 1.929 v 1.285 h -1.929 m 3.855,-1.285 h 1.926 v 1.285 h -1.926 m 3.856,-1.285 h 1.925 v 1.285 h -1.925 m 3.851,-1.285 h 1.926 v 1.285 h -1.926 m 3.856,-1.285 h 1.925 v 1.285 h -1.925 m 3.851,-1.285 h 1.926 v 1.285 h -1.926 m 3.856,-1.285 h 1.925 v 1.285 h -1.925 m 3.851,-1.285 h 1.926 v 1.285 h -1.926 m 3.856,-1.285 h 1.925 v 1.285 h -1.925 m 3.851,-1.285 h 1.93 v 1.285 h -1.93 m 3.856,-1.285 h 1.925 v 1.285 h -1.925 m 3.851,-1.285 h 1.93 v 1.285 h -1.93 m 3.856,-1.285 h 1.926 v 1.285 h -1.926 m 3.851,-1.285 h 1.93 v 1.285 h -1.93 m 3.856,-1.285 h 1.926 v 1.285 h -1.926 m 3.855,-1.285 h 1.926 v 1.285 h -1.926 m 3.852,-1.285 h 1.926 v 1.285 h -1.926 m 3.855,-1.285 h 1.926 v 1.285 h -1.926 m 3.852,-1.285 h 1.926 v 1.285 h -1.926 m 3.855,-1.285 h 1.926 v 1.285 h -1.926 m 3.852,-1.285 h 1.926 v 1.285 h -1.926 m 3.855,-1.285 h 1.926 v 1.285 h -1.926 m 3.852,-1.285 h 1.93 v 1.285 h -1.93 m 3.855,-1.285 h 1.926 v 1.285 h -1.926 m 3.852,-1.285 h 1.93 v 1.285 h -1.93 m 3.855,-1.285 h 1.926 v 1.285 h -1.926"
         style="fill:#000000;fill-opacity:1;fill-rule:nonzero;stroke:none"
         transform="scale(1.3333333)"
         clip-path="url(#clipPath1)"
         id="path2" />
    </g>
    <g
       id="g5"
       clip-path="url(#clipPath6)">
      <path
         d="m -34.641,-74.771 h -14.797 c -1.773,0 -3.214,-1.439 -3.214,-3.215 v -180.109 c 0,-1.772 1.441,-3.216 3.214,-3.216 h 32.805 c 1.778,0 3.219,1.444 3.219,3.216 v 180.109 c 0,1.776 -1.441,3.215 -3.219,3.215 h -11.578 c -1.273,3.334 -5.023,5.836 -9.648,6.436 1.671,-1.225 2.863,-3.618 3.218,-6.436 z"
         style="fill:#d9b591;fill-opacity:1;fill-rule:nonzero;stroke:#7b552e;stroke-width:1.50341;stroke-linecap:butt;stroke-linejoin:miter;stroke-miterlimit:10;stroke-dasharray:none;stroke-opacity:1"
         transform="matrix(0,-1.3333333,-1.190512,0,0,0)"
         clip-path="url(#clipPath4)"
         id="path5" />
    </g>
    <g
       id="g8"
       clip-path="url(#clipPath9)">
      <path
         d="m 177.926,34.891 h 43.383 v 10.934 h -43.383 z"
         style="fill:#90d898;fill-opacity:1;fill-rule:nonzero;stroke:none"
         transform="scale(1.3333333)"
         clip-path="url(#clipPath7)"
         id="path8" />
    </g>
    <g
       id="g11"
       clip-path="url(#clipPath12)">
      <path
         d="m -76.773,253.44 h -24.122 c -1.777,0 -3.218,-1.444 -3.218,-3.216 V 70.759 c 0,-1.776 1.441,-3.22 3.218,-3.22 h 32.805 c 1.774,0 3.215,1.444 3.215,3.22 v 179.465 c 0,1.772 -1.441,3.216 -3.215,3.216 h -1.609 c -1.395,3.665 -5.524,6.412 -10.613,7.073 1.839,-1.342 3.152,-3.975 3.539,-7.073 z"
         style="fill:#d7d7d7;fill-opacity:1;fill-rule:nonzero;stroke:#4f4f4f;stroke-width:1.5034;stroke-linecap:butt;stroke-linejoin:miter;stroke-miterlimit:10;stroke-dasharray:none;stroke-opacity:1"
         transform="matrix(0,-1.3333333,1.331328,0,0,0)"
         clip-path="url(#clipPath10)"
         id="path11" />
    </g>
    <g
       id="g14">
      <path
         d="M 101.836,71.961 H 249.832 V 82.895 H 101.836 Z"
         style="fill:#90d898;fill-opacity:1;fill-rule:nonzero;stroke:none"
         transform="scale(1.3333333)"
         clip-path="url(#clipPath13)"
         id="path14" />
    </g>
    <g
       id="g16"
       clip-path="url(#clipPath17)">
      <path
         d="m -198.348,252.794 h -24.121 c -1.777,0 -3.219,-1.439 -3.219,-3.216 V 70.759 c 0,-1.776 1.442,-3.22 3.219,-3.22 h 32.805 c 1.773,0 3.215,1.444 3.215,3.22 v 178.819 c 0,1.777 -1.442,3.216 -3.215,3.216 h -1.609 c -1.395,3.67 -5.524,6.416 -10.614,7.077 1.84,-1.346 3.153,-3.974 3.539,-7.077 z"
         style="fill:#d7d7d7;fill-opacity:1;fill-rule:nonzero;stroke:#4f4f4f;stroke-width:1.5034;stroke-linecap:butt;stroke-linejoin:miter;stroke-miterlimit:10;stroke-dasharray:none;stroke-opacity:1"
         transform="matrix(0,-1.3333333,1.331328,0,0,0)"
         clip-path="url(#clipPath15)"
         id="path16" />
    </g>
    <g
       id="g19">
      <path
         d="M 102.211,192.312 H 227.422 V 203.25 H 102.211 Z"
         style="fill:#ffeb87;fill-opacity:1;fill-rule:nonzero;stroke:none"
         transform="scale(1.3333333)"
         clip-path="url(#clipPath18)"
         id="path19" />
    </g>
    <path
       id="path20"
       d="m 15.562,65.469 c -0.675,-0.317 -1.335,-0.649 -1.98,-0.996 l 0.309,-0.262 c 1.429,-0.981 3.929,-3.008 4.406,-3.988 0.891,-1.75 1.57,-3.598 2.023,-5.508 L 20.465,54 c 4.5,3.637 10.445,4.941 16.051,3.523 0.625,1.297 1.433,2.922 1.636,3.258 0.493,0.739 1,1.43 1.766,1.766 2.352,1.043 3.18,1.41 4.934,2.168 -0.071,0.082 -0.137,0.164 -0.207,0.242 -2.161,2.34 -5.016,3.918 -8.145,4.5 -3.18,0.523 -6.434,0.445 -9.586,-0.234 -3.902,-0.864 -7.703,-2.125 -11.352,-3.754 z"
       style="fill:#d9b591;fill-opacity:1;fill-rule:nonzero;stroke:none"
       transform="scale(1.3333333)" />
    <path
       id="path21"
       d="m 45.598,26.793 c -2.407,-1.984 -5.121,-3.945 -7.243,-4.906 -0.394,-0.172 -0.878,0.09 -1.019,0.687 -0.277,1.215 0.285,2.918 -0.637,2.61 -1.605,-0.539 -6.461,-3.555 -10.195,-4.899 l -3.621,1.496 c -0.571,0.317 -1.106,0.684 -1.606,1.102 -0.789,0.691 -1.484,1.48 -2.078,2.344 -1.172,1.652 -2.64,4.359 -4.422,8.722 l -1.23,-0.777 C 12.305,31.957 10.172,31.953 8.754,32.961 7.359,34.047 6.59,35.754 6.699,37.52 c 0.129,1.746 0.774,3.414 1.852,4.792 1.379,1.825 3.226,3.239 5.344,4.102 1.296,2.297 2.953,4.375 4.906,6.148 2.183,2.133 4.824,3.735 7.722,4.684 3.329,1.039 6.887,1.109 10.258,0.207 1.813,-0.476 3.543,-1.226 5.129,-2.23 1.824,-1.223 3.406,-2.778 4.664,-4.578 1.571,-2.145 2.778,-4.54 3.563,-7.083 0.75,-2.3 1.242,-4.679 1.472,-7.089 0.153,-1.328 0.219,-2.453 0.246,-3.285 0,0 0.004,-0.098 0.012,-0.266 -0.992,-1.086 -2.609,-2.856 -2.609,-2.856 -1,-0.976 -2.278,-2.128 -3.66,-3.273 z"
       style="fill:#d9b591;fill-opacity:1;fill-rule:nonzero;stroke:none"
       transform="scale(1.3333333)" />
    <path
       id="path22"
       d="m 6.609,21.555 c 0.598,-4.664 2.2,-9.367 5.289,-11.899 L 14.734,7.125 C 15.738,6.117 19.363,1.984 27.516,1.23 37.176,0.336 44.379,3.414 47.469,6.832 l 0.25,3.258 c 4.168,3.758 6.488,10.57 5.265,19.972 -0.039,0.598 -0.086,1.188 -0.144,1.766 -0.063,0.656 -0.137,1.293 -0.219,1.914 -0.074,-0.082 -3.363,-3.68 -3.363,-3.68 -2.742,-2.664 -7.563,-6.664 -10.903,-8.175 -0.394,-0.172 -0.882,0.09 -1.019,0.687 -0.277,1.215 0.285,2.918 -0.641,2.61 C 35.094,24.645 30.238,21.629 26.5,20.285 l -3.617,1.496 c -0.571,0.317 -1.11,0.684 -1.61,1.102 -0.785,0.691 -1.484,1.48 -2.078,2.344 -1.168,1.652 -2.636,4.359 -4.418,8.722 l -1.23,-0.777 C 12.305,31.957 10.168,31.953 8.754,32.961 8.352,33.246 8,33.602 7.711,34.004 6.863,31.922 6.332,27.914 6.324,26.086 6.32,24.57 6.418,23.059 6.609,21.555 Z"
       style="fill:#787878;fill-opacity:1;fill-rule:nonzero;stroke:none"
       transform="scale(1.3333333)" />
    <path
       id="path23"
       d="M 12.805,33.914 C 11.84,33.02 10.242,33.117 9.238,33.902 8.035,34.84 7.598,36.516 7.777,37.98 c 0.438,3.547 3.551,6.176 6.621,7.516 0.5,0.297 0.668,0.938 0.379,1.438 -0.3,0.488 -0.933,0.656 -1.437,0.378 C 10.152,45.918 7.434,43.449 6.184,40.148 5,37.02 5.855,32.891 9.211,31.539 c 1.723,-0.703 3.695,-0.355 5.078,0.891 0.992,0.922 -0.496,2.406 -1.484,1.484 z"
       style="fill:#000000;fill-opacity:1;fill-rule:nonzero;stroke:none"
       transform="scale(1.3333333)" />
    <path
       id="path24"
       d="M 52.906,33.184 C 52.809,37.238 52.074,41.25 50.719,45.07 49.312,48.879 47,52.617 43.781,55.156 37.496,60.113 28.254,60.391 21.566,56.078 18.02,53.754 15.074,50.617 12.977,46.93 c -0.672,-1.176 1.14,-2.239 1.812,-1.063 1.699,2.985 3.996,5.586 6.746,7.641 3.051,2.293 6.766,3.531 10.578,3.523 3.27,-0.011 6.473,-0.945 9.235,-2.695 3.175,-2.055 5.558,-5.449 6.992,-8.906 1.543,-3.903 2.379,-8.051 2.465,-12.246 0.05,-1.348 2.148,-1.356 2.097,0 z"
       style="fill:#000000;fill-opacity:1;fill-rule:nonzero;stroke:none"
       transform="scale(1.3333333)" />
    <path
       id="path25"
       d="M 6.508,33.762 C 5.496,30.543 5.102,27.164 5.348,23.797 5.57,20.203 6.27,16.559 7.852,13.301 c 0.781,-1.68 1.906,-3.176 3.304,-4.387 0.418,-0.394 1.071,-0.394 1.485,0 0.406,0.414 0.406,1.074 0,1.488 -2.407,2 -3.649,5.024 -4.383,7.996 -0.785,3.067 -1.047,6.243 -0.785,9.395 0.152,1.84 0.507,3.652 1.058,5.41 0.43,1.285 -1.597,1.84 -2.023,0.559 z"
       style="fill:#000000;fill-opacity:1;fill-rule:nonzero;stroke:none"
       transform="scale(1.3333333)" />
    <path
       id="path26"
       d="m 54.035,30.062 c -0.078,1.153 -0.187,2.301 -0.332,3.446 -0.012,0.277 -0.121,0.539 -0.308,0.746 -0.411,0.41 -1.075,0.41 -1.481,0 -0.203,-0.195 -0.312,-0.465 -0.309,-0.746 0.149,-1.145 0.258,-2.293 0.333,-3.446 0.007,-0.277 0.117,-0.542 0.308,-0.742 0.66,-0.668 1.793,-0.195 1.789,0.742 z"
       style="fill:#000000;fill-opacity:1;fill-rule:nonzero;stroke:none"
       transform="scale(1.3333333)" />
    <path
       id="path27"
       d="m 48.465,9.348 c 4.086,3.722 5.668,9.382 5.863,14.754 0.063,2.003 -0.043,4.011 -0.305,6 -0.019,0.57 -0.48,1.031 -1.05,1.05 -0.578,-0.004 -1.047,-0.472 -1.051,-1.05 0.707,-5.54 0.469,-11.661 -2.61,-16.504 -0.648,-1.024 -1.433,-1.953 -2.332,-2.766 -1,-0.91 0.485,-2.391 1.485,-1.484 z"
       style="fill:#000000;fill-opacity:1;fill-rule:nonzero;stroke:none"
       transform="scale(1.3333333)" />
    <path
       id="path28"
       d="m 13.992,6.383 c 0.903,-0.934 1.883,-1.785 2.93,-2.551 1.98,-1.379 4.191,-2.383 6.527,-2.965 3.262,-0.789 6.629,-1.043 9.973,-0.746 2.93,0.188 5.808,0.832 8.539,1.906 2.305,0.938 4.555,2.207 6.254,4.063 0.91,0.996 -0.57,2.484 -1.485,1.484 C 45.371,6.156 43.738,5.035 41.926,4.277 39.539,3.23 37.004,2.566 34.41,2.312 29.031,1.73 23.184,2.242 18.551,5.258 17.859,5.695 17.211,6.195 16.613,6.754 16.219,7.113 15.852,7.492 15.477,7.867 14.523,8.828 13.039,7.344 13.992,6.383 Z"
       style="fill:#000000;fill-opacity:1;fill-rule:nonzero;stroke:none"
       transform="scale(1.3333333)" />
    <path
       id="path29"
       d="m 48.516,30.805 c -2.957,-2.864 -6.25,-5.703 -9.907,-7.625 -0.187,-0.082 -0.371,-0.176 -0.547,-0.274 -0.207,-0.14 -0.097,0.008 0.016,-0.035 0.004,0 0.352,0.012 0.274,-0.059 -0.008,0.133 -0.024,0.266 -0.043,0.399 -0.016,0.262 -0.008,0.527 0,0.789 0.015,0.914 -0.079,2.09 -1.215,2.246 -0.707,0.098 -1.442,-0.348 -2.059,-0.652 -0.808,-0.395 -1.597,-0.821 -2.394,-1.242 -2.067,-1.164 -4.211,-2.184 -6.414,-3.051 -0.551,-0.164 -0.872,-0.735 -0.735,-1.293 0.16,-0.555 0.735,-0.883 1.289,-0.731 2.09,0.801 4.117,1.743 6.078,2.817 0.868,0.453 1.727,0.918 2.598,1.367 0.336,0.172 0.672,0.344 1.016,0.5 l 0.175,0.082 c 0,0 0.27,0.113 0.114,0.051 -0.153,-0.063 0.082,0.023 0.09,0.031 0.187,0.16 0.003,-0.063 0.031,0.043 l -0.629,0.363 c -0.047,0.121 -0.063,0.141 -0.043,0.059 l 0.012,-0.043 c -0.02,0.113 -0.024,0.101 -0.012,-0.035 0,-0.223 0,-0.434 -0.004,-0.653 -0.027,-0.523 0.012,-1.047 0.121,-1.562 0.137,-0.586 0.531,-1.082 1.074,-1.344 0.563,-0.234 1.203,-0.18 1.723,0.141 1.883,0.957 3.66,2.109 5.301,3.437 1.949,1.489 3.812,3.086 5.578,4.789 0.973,0.942 -0.512,2.426 -1.484,1.485 z"
       style="fill:#000000;fill-opacity:1;fill-rule:nonzero;stroke:none"
       transform="scale(1.3333333)" />
    <path
       id="path30"
       d="m 23.41,22.688 c -1.84,1.035 -3.121,2.648 -4.195,4.441 -1.317,2.273 -2.465,4.648 -3.426,7.098 -0.168,0.546 -0.734,0.871 -1.289,0.734 -0.555,-0.156 -0.883,-0.734 -0.734,-1.293 1.031,-2.66 2.269,-5.234 3.699,-7.703 1.246,-2.055 2.773,-3.903 4.887,-5.09 1.183,-0.664 2.238,1.152 1.062,1.813 z"
       style="fill:#000000;fill-opacity:1;fill-rule:nonzero;stroke:none"
       transform="scale(1.3333333)" />
    <path
       id="path31"
       d="m 21.332,54.988 c -0.258,1.176 -0.625,2.321 -1.09,3.43 -0.351,1.051 -0.851,2.051 -1.48,2.965 -1.172,1.469 -2.809,2.672 -4.344,3.73 -0.5,0.285 -1.137,0.121 -1.434,-0.379 -0.281,-0.5 -0.113,-1.136 0.375,-1.433 1.438,-0.926 2.739,-2.043 3.864,-3.328 0.101,-0.133 -0.118,0.187 0.019,-0.032 0.031,-0.054 0.067,-0.105 0.098,-0.16 0.121,-0.211 0.219,-0.437 0.324,-0.656 0.231,-0.492 0.445,-0.992 0.645,-1.496 0.425,-1.035 0.761,-2.102 1,-3.195 0.371,-1.348 2.394,-0.789 2.023,0.558 z"
       style="fill:#000000;fill-opacity:1;fill-rule:nonzero;stroke:none"
       transform="scale(1.3333333)" />
    <path
       id="path32"
       d="M 44.285,65.605 C 43.199,65.137 42.113,64.66 41.031,64.18 40.32,63.922 39.637,63.605 38.984,63.227 c -0.699,-0.52 -1.289,-1.172 -1.738,-1.918 -0.289,-0.504 -0.121,-1.145 0.375,-1.438 0.504,-0.281 1.133,-0.113 1.434,0.375 0.164,0.262 0.347,0.512 0.55,0.746 0.114,0.129 0.239,0.25 0.368,0.367 0.129,0.118 -0.016,0 0.07,0.055 0.074,0.043 0.145,0.09 0.219,0.133 0.636,0.344 1.336,0.601 2,0.894 1.023,0.454 2.054,0.903 3.082,1.348 0.5,0.293 0.668,0.938 0.379,1.438 -0.305,0.484 -0.934,0.652 -1.438,0.375 z"
       style="fill:#000000;fill-opacity:1;fill-rule:nonzero;stroke:none"
       transform="scale(1.3333333)" />
    <path
       id="path33"
       d="m 36.367,40.75 c 0.153,0.371 0.285,0.758 0.395,1.145 0.183,0.632 0.418,1.437 -0.114,1.972 -0.117,0.113 -0.25,0.207 -0.39,0.285 -0.145,0.078 -0.301,0.141 -0.461,0.18 -0.219,0.035 -0.442,0.051 -0.664,0.043 -0.278,-0.004 -0.543,-0.113 -0.742,-0.309 -0.664,-0.66 -0.192,-1.796 0.742,-1.793 0.121,0.008 0.238,0.004 0.355,-0.003 l -0.277,0.039 c 0.059,-0.012 0.117,-0.028 0.176,-0.051 l -0.254,0.109 c 0.086,-0.039 0.164,-0.086 0.234,-0.14 l -0.211,0.164 c 0.004,-0.004 0.008,-0.008 0.008,-0.012 L 35,42.594 c 0.004,-0.008 0.008,-0.012 0.012,-0.02 l -0.106,0.254 c 0.004,-0.016 0.008,-0.027 0.008,-0.043 l -0.035,0.281 c 0.004,-0.058 0,-0.117 -0.008,-0.171 l 0.035,0.277 c -0.058,-0.348 -0.144,-0.692 -0.265,-1.027 -0.09,-0.282 -0.18,-0.567 -0.297,-0.84 -0.074,-0.274 -0.035,-0.563 0.105,-0.809 0.293,-0.5 0.938,-0.672 1.438,-0.379 l 0.211,0.164 c 0.129,0.129 0.222,0.289 0.269,0.465 z"
       style="fill:#000000;fill-opacity:1;fill-rule:nonzero;stroke:none"
       transform="scale(1.3333333)" />
    <path
       id="path34"
       d="m 44.59,35.934 c 0.308,0.972 0.168,3.222 -1.598,3.449 -2.344,0.027 -2.527,-2.684 -1.765,-3.977 0.621,-1.058 2.507,-1.531 3.363,0.528 z"
       style="fill:#000000;fill-opacity:1;fill-rule:nonzero;stroke:none"
       transform="scale(1.3333333)" />
    <path
       id="path35"
       d="m 24.488,36.016 c -0.293,1.027 -0.039,3.371 1.895,3.531 2.551,-0.07 2.629,-2.91 1.742,-4.227 -0.727,-1.078 -2.801,-1.488 -3.637,0.696 z"
       style="fill:#000000;fill-opacity:1;fill-rule:nonzero;stroke:none"
       transform="scale(1.3333333)" />
    <path
       id="path36"
       d="m 37.395,50.387 c -1.079,0.332 -2.215,0.437 -3.333,0.304 -1.246,-0.097 -2.457,-0.445 -3.566,-1.019 -0.496,-0.293 -0.664,-0.934 -0.379,-1.438 0.301,-0.488 0.934,-0.656 1.438,-0.375 0.097,0.055 0.199,0.106 0.3,0.157 0,0 0.247,0.109 0.114,0.05 -0.114,-0.05 0.058,0.024 0.082,0.032 0.238,0.093 0.484,0.175 0.73,0.242 0.254,0.07 0.512,0.129 0.77,0.176 0.062,0.011 0.125,0.019 0.183,0.031 0.024,0.004 0.219,0.035 0.094,0.015 -0.125,-0.019 0.07,0.008 0.094,0.012 0.078,0.008 0.156,0.016 0.23,0.024 0.5,0.047 1,0.05 1.5,0.011 0.086,-0.007 0.434,-0.054 0.188,-0.015 0.109,-0.016 0.219,-0.035 0.324,-0.055 0.227,-0.043 0.453,-0.105 0.672,-0.18 0.559,-0.152 1.133,0.176 1.289,0.735 0.141,0.558 -0.18,1.125 -0.73,1.293 z"
       style="fill:#000000;fill-opacity:1;fill-rule:nonzero;stroke:none"
       transform="scale(1.3333333)" />
    <path
       id="path37"
       d="m 308.5,79.777 c 1.477,-0.695 2.996,0.075 3.617,2.446 0.371,1.41 -0.066,6.328 -0.312,7.023 -0.446,1.246 -0.801,1.692 -1.516,2.059 -0.758,0.402 -1.656,0.418 -2.426,0.047"
       style="fill:#d7d7d7;fill-opacity:1;fill-rule:nonzero;stroke:none"
       transform="scale(1.3333333)" />
    <path
       id="path38"
       d="m 266.074,79.777 c -1.48,-0.695 -3,0.075 -3.621,2.446 -0.367,1.41 0.07,6.328 0.317,7.023 0.445,1.246 0.796,1.692 1.515,2.059 0.754,0.402 1.656,0.418 2.422,0.047"
       style="fill:#d7d7d7;fill-opacity:1;fill-rule:nonzero;stroke:none"
       transform="scale(1.3333333)" />
    <path
       id="path39"
       d="m 295.086,107.09 v -3.399 c 0,0 0,-0.011 0,-0.031 -4.008,0.012 -12.086,0.098 -14.914,0.098 v 3.488 c 2.797,-0.094 11.926,-0.098 14.914,0 z"
       style="fill:#d7d7d7;fill-opacity:1;fill-rule:nonzero;stroke:none"
       transform="scale(1.3333333)" />
    <path
       id="path40"
       d="m 279.227,103.691 c -7.993,0 -10.356,-4.757 -11.336,-8.781 -1.879,-3.265 -2.235,-13.433 -1.27,-17.137 1.309,-3.375 2.84,-6.832 5.606,-9.164 4.035,-3.402 9.816,-4.5 15.062,-4.5 5.242,0 11.023,1.098 15.063,4.5 2.761,2.336 4.293,5.789 5.601,9.164 0.965,3.704 0.609,13.872 -1.269,17.141 -0.977,4.02 -3.344,8.781 -11.336,8.781"
       style="fill:#787878;fill-opacity:1;fill-rule:nonzero;stroke:none"
       transform="scale(1.3333333)" />
    <path
       id="path41"
       d="m 278.805,73.074 c -2.356,0.567 -4.641,1.801 -5.996,3.813 -0.961,1.425 -1.395,3.144 -1.688,4.84 -0.84,4.859 -0.68,9.839 0.465,14.636 0.594,2.422 1.945,4.59 3.863,6.184 0.903,0.765 2.043,1.191 3.223,1.211 3.043,0 13.91,-0.102 17.23,-0.102 1.094,0 2.297,-0.582 3.098,-1.152 2.031,-1.496 3.445,-3.68 3.984,-6.141 1.149,-4.797 1.309,-9.777 0.469,-14.636 -0.293,-1.696 -0.726,-3.415 -1.687,-4.84 -1.356,-2.012 -3.645,-3.246 -6,-3.813 -2.356,-0.57 -14.602,-0.57 -16.961,0 z"
       style="fill:#d7d7d7;fill-opacity:1;fill-rule:nonzero;stroke:none"
       transform="scale(1.3333333)" />
    <path
       id="path42"
       d="m 283.176,87.453 c 0.418,1.359 0.148,4.485 -2.418,4.75 -3.387,-0.019 -3.567,-3.801 -2.426,-5.578 0.934,-1.453 3.68,-2.059 4.844,0.828 z"
       style="fill:#211715;fill-opacity:1;fill-rule:nonzero;stroke:none"
       transform="scale(1.3333333)" />
    <path
       id="path43"
       d="m 297.184,87.453 c 0.418,1.359 0.144,4.485 -2.418,4.75 -3.387,-0.019 -3.567,-3.801 -2.426,-5.578 0.933,-1.453 3.68,-2.059 4.844,0.828 z"
       style="fill:#211715;fill-opacity:1;fill-rule:nonzero;stroke:none"
       transform="scale(1.3333333)" />
    <path
       id="path44"
       d="m 285.613,98.215 h 4.008 c 0.41,0 0.742,-0.332 0.742,-0.742 0,-0.411 -0.332,-0.743 -0.742,-0.739 h -4.008 c -0.984,0.004 -0.984,1.477 0,1.481 z"
       style="fill:#211715;fill-opacity:1;fill-rule:nonzero;stroke:none"
       transform="scale(1.3333333)" />
    <path
       id="path45"
       d="m 287.285,64.844 c 4.598,0.008 9.445,0.793 13.336,3.39 1.934,1.336 3.508,3.129 4.59,5.215 0.555,1.031 1.055,2.094 1.496,3.18 0.227,0.488 0.422,0.992 0.574,1.512 0.074,0.308 0.129,0.617 0.18,0.929 0.012,0.082 0.023,0.168 0.035,0.25 0.02,0.133 -0.004,-0.039 0.012,0.102 0.023,0.195 0.047,0.39 0.066,0.586 0.039,0.41 0.071,0.82 0.094,1.234 0.055,0.914 0.07,1.828 0.062,2.742 -0.007,1.887 -0.136,3.77 -0.378,5.641 -0.118,0.848 -0.266,1.691 -0.465,2.523 -0.086,0.368 -0.184,0.735 -0.301,1.098 -0.051,0.156 -0.106,0.316 -0.164,0.473 -0.027,0.074 -0.055,0.148 -0.086,0.222 -0.004,0.008 -0.043,0.11 -0.012,0.032 0.039,-0.086 -0.031,0.07 -0.039,0.089 -0.16,0.305 -0.289,0.622 -0.39,0.954 -0.086,0.328 -0.18,0.652 -0.282,0.976 -0.105,0.324 -0.215,0.637 -0.34,0.949 -0.082,0.211 -0.062,0.164 -0.152,0.364 -0.074,0.168 -0.152,0.336 -0.238,0.5 -0.309,0.621 -0.68,1.211 -1.106,1.757 -0.457,0.563 -0.98,1.067 -1.562,1.5 -1.5,1.036 -3.25,1.657 -5.067,1.801 -0.597,0.063 -1.199,0.086 -1.804,0.09 -0.949,0.004 -0.953,1.485 0,1.481 2.211,-0.008 4.453,-0.356 6.437,-1.375 1.512,-0.786 2.793,-1.946 3.727,-3.368 0.804,-1.269 1.402,-2.656 1.765,-4.117 0.024,-0.078 0.043,-0.156 0.063,-0.234 0.012,-0.047 0.07,-0.246 0.012,-0.106 0.058,-0.144 0.148,-0.281 0.214,-0.425 0.161,-0.348 0.297,-0.704 0.418,-1.067 0.25,-0.781 0.446,-1.582 0.586,-2.39 0.344,-1.954 0.547,-3.93 0.61,-5.911 0.086,-1.867 0.043,-3.734 -0.137,-5.593 -0.059,-0.739 -0.176,-1.469 -0.351,-2.188 -0.184,-0.566 -0.403,-1.117 -0.653,-1.656 -0.25,-0.602 -0.508,-1.203 -0.781,-1.793 -1.063,-2.258 -2.422,-4.449 -4.336,-6.086 -3.809,-3.246 -8.918,-4.469 -13.813,-4.715 -0.605,-0.031 -1.21,-0.047 -1.82,-0.047 -0.949,0 -0.953,1.481 0,1.481 z"
       style="fill:#211715;fill-opacity:1;fill-rule:nonzero;stroke:none"
       transform="scale(1.3333333)" />
    <path
       id="path46"
       d="m 278.609,72.359 c -2.019,0.496 -3.996,1.442 -5.464,2.95 -1.61,1.656 -2.321,3.863 -2.715,6.089 -0.891,5.008 -0.746,10.141 0.425,15.09 0.504,2.082 1.54,4 3.004,5.563 0.715,0.828 1.598,1.5 2.586,1.965 0.821,0.336 1.696,0.5 2.578,0.48 2.868,-0.004 5.739,-0.031 8.606,-0.051 1.637,-0.011 3.273,-0.023 4.91,-0.035 1.191,-0.004 2.418,0.067 3.609,-0.023 2.149,-0.157 4.09,-1.637 5.379,-3.285 1.375,-1.762 2.055,-3.797 2.485,-5.969 0.961,-4.867 1.019,-10.055 -0.106,-14.906 -0.511,-2.207 -1.511,-4.247 -3.312,-5.668 -1.446,-1.153 -3.145,-1.93 -4.957,-2.266 -1.063,-0.16 -2.129,-0.254 -3.203,-0.281 -1.469,-0.071 -2.942,-0.098 -4.414,-0.106 -2.735,-0.066 -5.473,0.024 -8.2,0.27 -0.406,0.035 -0.808,0.097 -1.211,0.183 -0.921,0.219 -0.531,1.645 0.395,1.426 0.141,-0.031 0.281,-0.058 0.426,-0.082 0.043,-0.004 0.086,-0.012 0.129,-0.015 0.164,-0.028 -0.184,0.019 -0.012,0 0.117,-0.016 0.234,-0.028 0.355,-0.043 0.524,-0.055 1.047,-0.09 1.571,-0.122 1.343,-0.074 2.691,-0.109 4.035,-0.128 2.754,-0.036 5.523,-0.024 8.273,0.175 0.242,0.016 0.485,0.035 0.727,0.063 0.105,0.008 0.215,0.019 0.32,0.031 l 0.149,0.02 c 0.218,0.023 -0.09,-0.016 0.035,0.004 0.582,0.089 1.152,0.238 1.707,0.433 1.758,0.602 3.453,1.664 4.48,3.25 1.18,1.82 1.535,4.117 1.789,6.234 0.282,2.368 0.332,4.758 0.149,7.137 -0.094,1.196 -0.25,2.387 -0.469,3.567 -0.172,1.058 -0.43,2.101 -0.77,3.121 -0.628,1.812 -1.8,3.382 -3.355,4.5 -0.766,0.574 -1.684,0.918 -2.637,0.984 -0.488,0.008 -0.976,0.004 -1.465,0.004 -1.371,0.008 -2.746,0.016 -4.117,0.023 -3.09,0.024 -6.179,0.043 -9.273,0.063 -1.106,0.008 -2.352,0.156 -3.43,-0.137 -0.91,-0.289 -1.726,-0.808 -2.371,-1.515 -0.703,-0.692 -1.309,-1.473 -1.809,-2.325 -1.082,-1.871 -1.464,-4.047 -1.769,-6.16 -0.328,-2.347 -0.422,-4.719 -0.277,-7.086 0.132,-2.273 0.394,-4.668 1.187,-6.82 0.691,-1.832 2.047,-3.336 3.797,-4.211 0.836,-0.426 1.715,-0.75 2.629,-0.965 0.918,-0.226 0.527,-1.656 -0.399,-1.426 z"
       style="fill:#211715;fill-opacity:1;fill-rule:nonzero;stroke:none"
       transform="scale(1.3333333)" />
    <path
       id="path47"
       d="m 294.348,103.691 v 3.297 c 0,0.985 1.476,0.985 1.476,0 v -3.297 c 0,-0.406 -0.332,-0.738 -0.738,-0.738 -0.41,0 -0.738,0.332 -0.738,0.738 z"
       style="fill:#211715;fill-opacity:1;fill-rule:nonzero;stroke:none"
       transform="scale(1.3333333)" />
    <path
       id="path48"
       d="m 279.434,103.969 v 3.019 c 0,0.985 1.472,0.985 1.476,0 v -3.019 c -0.004,-0.985 -1.476,-0.985 -1.476,0 z"
       style="fill:#211715;fill-opacity:1;fill-rule:nonzero;stroke:none"
       transform="scale(1.3333333)" />
    <path
       id="path49"
       d="m 308.871,80.418 c 0.352,-0.176 0.762,-0.199 1.129,-0.063 0.391,0.184 0.719,0.489 0.93,0.872 0.152,0.257 0.273,0.531 0.367,0.82 0.051,0.152 0.098,0.305 0.129,0.465 0.012,0.047 0.054,0.32 0.027,0.125 0.051,0.441 0.074,0.886 0.07,1.328 0,1.097 -0.066,2.195 -0.168,3.285 -0.019,0.227 -0.046,0.453 -0.07,0.676 -0.012,0.109 -0.027,0.215 -0.039,0.32 -0.019,0.133 0.024,-0.172 -0.004,0.031 -0.008,0.051 -0.015,0.098 -0.023,0.149 -0.047,0.34 -0.137,0.668 -0.266,0.988 -0.105,0.277 -0.246,0.543 -0.418,0.785 -0.117,0.141 -0.254,0.258 -0.41,0.352 -0.684,0.414 -1.336,0.371 -2.066,0.086 -0.391,-0.106 -0.797,0.125 -0.907,0.519 -0.101,0.391 0.129,0.793 0.516,0.91 1.52,0.59 3.293,0.18 4.211,-1.222 0.621,-0.942 0.781,-1.977 0.898,-3.067 0.145,-1.238 0.219,-2.48 0.223,-3.726 0,-1.274 -0.141,-2.504 -0.82,-3.617 -0.407,-0.707 -1.055,-1.246 -1.825,-1.52 -0.746,-0.207 -1.543,-0.129 -2.23,0.227 -0.348,0.207 -0.469,0.656 -0.266,1.011 0.215,0.344 0.661,0.461 1.012,0.266 z"
       style="fill:#211715;fill-opacity:1;fill-rule:nonzero;stroke:none"
       transform="scale(1.3333333)" />
    <path
       id="path50"
       d="m 287.285,63.363 c -4.875,0.008 -10.07,0.871 -14.183,3.66 -2.067,1.438 -3.766,3.344 -4.954,5.567 -0.609,1.125 -1.156,2.285 -1.632,3.472 -0.379,0.825 -0.653,1.688 -0.821,2.579 -0.254,1.754 -0.367,3.523 -0.332,5.297 0.012,2.035 0.157,4.066 0.434,6.082 0.226,1.636 0.535,3.308 1.226,4.816 0.059,0.129 0.133,0.246 0.188,0.375 0.043,0.098 -0.035,-0.117 -0.008,-0.004 0.008,0.035 0.02,0.066 0.027,0.102 0.02,0.101 0.051,0.199 0.079,0.3 0.089,0.34 0.195,0.68 0.304,1.016 0.242,0.73 0.543,1.441 0.903,2.125 0.75,1.449 1.836,2.695 3.164,3.641 1.668,1.175 3.675,1.738 5.683,1.949 0.621,0.062 1.242,0.094 1.864,0.09 0.953,0.004 0.953,-1.477 0,-1.481 -1.989,-0.004 -4.043,-0.297 -5.809,-1.234 -1.305,-0.692 -2.41,-1.715 -3.195,-2.965 -0.196,-0.309 -0.371,-0.625 -0.535,-0.945 -0.165,-0.328 -0.293,-0.625 -0.387,-0.864 -0.25,-0.64 -0.461,-1.296 -0.629,-1.964 -0.098,-0.317 -0.227,-0.625 -0.383,-0.918 -0.019,-0.039 -0.035,-0.079 -0.051,-0.118 0.004,0.012 0.043,0.106 0.012,0.028 -0.031,-0.074 -0.059,-0.149 -0.086,-0.223 -0.062,-0.164 -0.121,-0.336 -0.176,-0.504 -0.238,-0.765 -0.422,-1.543 -0.558,-2.332 -0.317,-1.824 -0.5,-3.668 -0.555,-5.519 -0.082,-1.797 -0.039,-3.598 0.121,-5.387 0.043,-0.422 0.066,-0.621 0.121,-0.973 0.047,-0.301 0.106,-0.597 0.176,-0.894 0.152,-0.516 0.344,-1.02 0.574,-1.508 0.223,-0.543 0.457,-1.082 0.707,-1.613 0.996,-2.141 2.238,-4.2 4.035,-5.762 3.504,-3.055 8.391,-4.149 12.922,-4.367 0.582,-0.032 1.168,-0.043 1.758,-0.043 0.949,0 0.953,-1.481 0,-1.481 z"
       style="fill:#211715;fill-opacity:1;fill-rule:nonzero;stroke:none"
       transform="scale(1.3333333)" />
    <path
       id="path51"
       d="m 266.445,79.137 c -1.312,-0.594 -2.738,-0.364 -3.679,0.781 -0.871,1.062 -1.161,2.375 -1.188,3.715 -0.016,1.25 0.043,2.5 0.172,3.742 0.051,1.039 0.285,2.063 0.695,3.02 0.801,1.699 2.739,2.339 4.461,1.667 0.387,-0.117 0.614,-0.515 0.516,-0.91 -0.113,-0.39 -0.516,-0.621 -0.91,-0.515 -0.645,0.25 -1.258,0.343 -1.891,0.011 -0.375,-0.175 -0.676,-0.484 -0.836,-0.867 -0.183,-0.351 -0.316,-0.73 -0.39,-1.121 -0.016,-0.07 -0.024,-0.137 -0.036,-0.207 -0.007,-0.047 -0.039,-0.273 -0.031,-0.207 0.008,0.059 -0.023,-0.191 -0.031,-0.246 -0.016,-0.129 -0.027,-0.254 -0.043,-0.383 -0.113,-1.082 -0.184,-2.176 -0.199,-3.265 -0.008,-0.473 -0.004,-0.954 0.035,-1.426 0.008,-0.098 0.015,-0.192 0.027,-0.289 -0.023,0.187 0.008,-0.028 0.016,-0.078 0.062,-0.309 0.16,-0.61 0.285,-0.895 0.199,-0.539 0.578,-0.988 1.074,-1.277 0.172,-0.071 0.352,-0.114 0.539,-0.117 0.231,0 0.461,0.05 0.668,0.144 0.356,0.195 0.797,0.078 1.012,-0.266 0.203,-0.351 0.086,-0.8 -0.266,-1.011 z"
       style="fill:#211715;fill-opacity:1;fill-rule:nonzero;stroke:none"
       transform="scale(1.3333333)" />
    <path
       id="path52"
       d="m 295.213,64.953 c -0.187,-0.808 0.223,-2.074 2.164,-5"
       style="fill:none;stroke:#000000;stroke-width:1.12601;stroke-linecap:round;stroke-linejoin:miter;stroke-miterlimit:4;stroke-dasharray:none;stroke-opacity:1"
       transform="scale(1.331328,1.3333333)" />
    <path
       id="path53"
       d="m 299.223,59.422 c 0,0.676 -0.547,1.223 -1.22,1.223 -0.673,0 -1.221,-0.547 -1.221,-1.223 0,-0.672 0.548,-1.219 1.221,-1.219 0.673,0 1.22,0.547 1.22,1.219 z"
       style="fill:#000000;fill-opacity:1;fill-rule:nonzero;stroke:#000000;stroke-width:1.12601;stroke-linecap:round;stroke-linejoin:miter;stroke-miterlimit:4;stroke-dasharray:none;stroke-opacity:1"
       transform="scale(1.331328,1.3333333)" />
    <path
       id="path54"
       d="m 308.5,200.051 c 1.477,-0.699 2.996,0.074 3.617,2.445 0.371,1.41 -0.066,6.328 -0.312,7.024 -0.446,1.246 -0.801,1.691 -1.516,2.058 -0.758,0.402 -1.656,0.418 -2.426,0.043"
       style="fill:#d7d7d7;fill-opacity:1;fill-rule:nonzero;stroke:none"
       transform="scale(1.3333333)" />
    <path
       id="path55"
       d="m 266.074,200.051 c -1.48,-0.699 -3,0.074 -3.621,2.445 -0.367,1.41 0.07,6.328 0.317,7.024 0.445,1.246 0.796,1.691 1.515,2.058 0.754,0.402 1.656,0.418 2.422,0.043"
       style="fill:#d7d7d7;fill-opacity:1;fill-rule:nonzero;stroke:none"
       transform="scale(1.3333333)" />
    <path
       id="path56"
       d="m 295.086,227.363 v -3.398 c 0,0 0,-0.012 0,-0.035 -4.008,0.011 -12.086,0.097 -14.914,0.097 v 3.493 c 2.797,-0.098 11.926,-0.098 14.914,-0.004 z"
       style="fill:#d7d7d7;fill-opacity:1;fill-rule:nonzero;stroke:none"
       transform="scale(1.3333333)" />
    <path
       id="path57"
       d="m 279.227,223.965 c -7.993,0 -10.356,-4.758 -11.336,-8.781 -1.879,-3.266 -2.235,-13.438 -1.27,-17.137 1.309,-3.379 2.84,-6.832 5.606,-9.164 4.035,-3.406 9.816,-4.504 15.062,-4.504 5.242,0 11.023,1.101 15.063,4.504 2.761,2.332 4.293,5.789 5.601,9.164 0.965,3.703 0.609,13.871 -1.269,17.137 -0.977,4.023 -3.344,8.781 -11.336,8.781"
       style="fill:#787878;fill-opacity:1;fill-rule:nonzero;stroke:none"
       transform="scale(1.3333333)" />
    <path
       id="path58"
       d="m 278.805,193.344 c -2.356,0.57 -4.641,1.801 -5.996,3.816 -0.961,1.426 -1.395,3.145 -1.688,4.84 -0.84,4.859 -0.68,9.84 0.465,14.633 0.594,2.426 1.945,4.594 3.863,6.187 0.903,0.762 2.043,1.192 3.223,1.207 3.043,0 13.91,-0.097 17.23,-0.097 1.094,0 2.297,-0.582 3.098,-1.153 2.031,-1.496 3.445,-3.679 3.984,-6.144 1.149,-4.793 1.309,-9.774 0.469,-14.633 -0.293,-1.695 -0.726,-3.414 -1.687,-4.84 -1.356,-2.015 -3.645,-3.246 -6,-3.816 -2.356,-0.571 -14.602,-0.571 -16.961,0 z"
       style="fill:#d7d7d7;fill-opacity:1;fill-rule:nonzero;stroke:none"
       transform="scale(1.3333333)" />
    <path
       id="path59"
       d="m 283.176,207.727 c 0.418,1.355 0.148,4.484 -2.418,4.75 -3.387,-0.024 -3.567,-3.801 -2.426,-5.579 0.934,-1.453 3.68,-2.058 4.844,0.829 z"
       style="fill:#211715;fill-opacity:1;fill-rule:nonzero;stroke:none"
       transform="scale(1.3333333)" />
    <path
       id="path60"
       d="m 297.184,207.727 c 0.418,1.355 0.144,4.484 -2.418,4.75 -3.387,-0.024 -3.567,-3.801 -2.426,-5.579 0.933,-1.453 3.68,-2.058 4.844,0.829 z"
       style="fill:#211715;fill-opacity:1;fill-rule:nonzero;stroke:none"
       transform="scale(1.3333333)" />
    <path
       id="path61"
       d="m 285.613,218.488 h 4.008 c 0.41,0 0.742,-0.332 0.742,-0.742 0,-0.41 -0.332,-0.742 -0.742,-0.742 h -4.008 c -0.984,0.004 -0.984,1.48 0,1.484 z"
       style="fill:#211715;fill-opacity:1;fill-rule:nonzero;stroke:none"
       transform="scale(1.3333333)" />
    <path
       id="path62"
       d="m 287.285,185.117 c 4.598,0.008 9.445,0.793 13.336,3.391 1.934,1.336 3.508,3.125 4.59,5.211 0.555,1.031 1.055,2.093 1.496,3.183 0.227,0.489 0.422,0.993 0.574,1.512 0.074,0.309 0.129,0.617 0.18,0.93 0.012,0.082 0.023,0.164 0.035,0.25 0.02,0.133 -0.004,-0.039 0.012,0.097 0.023,0.196 0.047,0.395 0.066,0.586 0.039,0.411 0.071,0.825 0.094,1.235 0.055,0.914 0.07,1.832 0.062,2.746 -0.007,1.887 -0.136,3.769 -0.378,5.64 -0.118,0.848 -0.266,1.692 -0.465,2.52 -0.086,0.371 -0.184,0.738 -0.301,1.098 -0.051,0.16 -0.106,0.32 -0.164,0.476 -0.027,0.074 -0.055,0.149 -0.086,0.219 0,0.012 -0.043,0.113 -0.012,0.035 0.039,-0.086 -0.031,0.07 -0.039,0.086 -0.16,0.309 -0.289,0.625 -0.39,0.953 -0.086,0.328 -0.18,0.656 -0.282,0.981 -0.105,0.324 -0.215,0.636 -0.34,0.949 -0.082,0.211 -0.062,0.164 -0.152,0.363 -0.074,0.168 -0.152,0.336 -0.238,0.5 -0.309,0.621 -0.68,1.211 -1.106,1.758 -0.457,0.562 -0.98,1.066 -1.562,1.5 -1.5,1.035 -3.25,1.656 -5.067,1.801 -0.597,0.062 -1.199,0.086 -1.804,0.09 -0.949,0 -0.953,1.48 0,1.48 2.211,-0.008 4.453,-0.359 6.437,-1.375 1.512,-0.785 2.793,-1.945 3.727,-3.371 0.804,-1.266 1.402,-2.656 1.765,-4.113 0.024,-0.078 0.043,-0.157 0.063,-0.235 0.012,-0.047 0.07,-0.246 0.012,-0.105 0.058,-0.145 0.148,-0.285 0.214,-0.426 0.161,-0.348 0.297,-0.703 0.418,-1.066 0.25,-0.782 0.446,-1.582 0.582,-2.391 0.348,-1.953 0.551,-3.93 0.614,-5.91 0.086,-1.867 0.043,-3.738 -0.137,-5.598 -0.059,-0.734 -0.176,-1.469 -0.351,-2.183 -0.184,-0.567 -0.403,-1.118 -0.653,-1.657 -0.25,-0.605 -0.508,-1.203 -0.781,-1.793 -1.063,-2.257 -2.422,-4.453 -4.336,-6.086 -3.809,-3.246 -8.918,-4.472 -13.813,-4.718 -0.605,-0.028 -1.21,-0.043 -1.82,-0.043 -0.949,0 -0.953,1.48 0,1.48 z"
       style="fill:#211715;fill-opacity:1;fill-rule:nonzero;stroke:none"
       transform="scale(1.3333333)" />
    <path
       id="path63"
       d="m 278.609,192.629 c -2.019,0.5 -3.996,1.441 -5.464,2.949 -1.61,1.656 -2.321,3.863 -2.715,6.094 -0.891,5.008 -0.746,10.14 0.425,15.09 0.504,2.082 1.54,4 3.004,5.562 0.715,0.828 1.598,1.496 2.586,1.965 0.821,0.336 1.696,0.5 2.578,0.481 2.868,-0.008 5.739,-0.032 8.606,-0.055 1.637,-0.012 3.273,-0.02 4.91,-0.031 1.191,-0.008 2.418,0.066 3.609,-0.024 2.149,-0.16 4.09,-1.637 5.379,-3.285 1.375,-1.762 2.055,-3.801 2.485,-5.969 0.961,-4.871 1.019,-10.058 -0.106,-14.906 -0.511,-2.207 -1.511,-4.246 -3.312,-5.672 -1.446,-1.148 -3.145,-1.926 -4.957,-2.262 -1.063,-0.16 -2.129,-0.254 -3.203,-0.285 -1.469,-0.066 -2.942,-0.093 -4.414,-0.101 -2.735,-0.067 -5.473,0.023 -8.2,0.265 -0.406,0.039 -0.808,0.098 -1.211,0.184 -0.921,0.223 -0.531,1.648 0.395,1.43 0.141,-0.036 0.281,-0.059 0.426,-0.082 0.043,-0.008 0.086,-0.012 0.129,-0.02 0.164,-0.023 -0.184,0.023 -0.012,0.004 0.117,-0.016 0.234,-0.031 0.355,-0.043 0.524,-0.055 1.047,-0.09 1.571,-0.121 1.343,-0.078 2.691,-0.109 4.035,-0.129 2.754,-0.035 5.523,-0.023 8.273,0.176 0.242,0.015 0.485,0.035 0.727,0.058 0.105,0.012 0.215,0.024 0.32,0.036 l 0.149,0.015 c 0.218,0.027 -0.09,-0.012 0.035,0.004 0.582,0.094 1.152,0.242 1.707,0.438 1.758,0.601 3.453,1.664 4.48,3.25 1.18,1.82 1.535,4.113 1.789,6.234 0.282,2.367 0.332,4.758 0.149,7.137 -0.094,1.195 -0.25,2.386 -0.469,3.566 -0.172,1.059 -0.43,2.102 -0.77,3.121 -0.628,1.809 -1.8,3.383 -3.355,4.496 -0.766,0.578 -1.684,0.922 -2.637,0.989 -0.488,0.007 -0.976,0.003 -1.465,0.003 -1.371,0.008 -2.746,0.016 -4.117,0.024 -3.09,0.019 -6.179,0.043 -9.273,0.062 -1.106,0.008 -2.352,0.153 -3.43,-0.14 -0.91,-0.285 -1.726,-0.805 -2.371,-1.512 -0.703,-0.691 -1.309,-1.473 -1.809,-2.324 -1.082,-1.871 -1.464,-4.047 -1.769,-6.16 -0.328,-2.348 -0.422,-4.719 -0.277,-7.086 0.132,-2.278 0.394,-4.668 1.187,-6.821 0.691,-1.832 2.047,-3.336 3.797,-4.211 0.836,-0.425 1.715,-0.753 2.629,-0.968 0.918,-0.223 0.527,-1.653 -0.399,-1.426 z"
       style="fill:#211715;fill-opacity:1;fill-rule:nonzero;stroke:none"
       transform="scale(1.3333333)" />
    <path
       id="path64"
       d="m 294.348,223.965 v 3.293 c 0,0.988 1.476,0.988 1.476,0 v -3.293 c 0,-0.41 -0.332,-0.742 -0.738,-0.742 -0.41,0 -0.738,0.332 -0.738,0.742 z"
       style="fill:#211715;fill-opacity:1;fill-rule:nonzero;stroke:none"
       transform="scale(1.3333333)" />
    <path
       id="path65"
       d="m 279.434,224.242 v 3.016 c 0,0.988 1.472,0.988 1.476,0 v -3.016 c -0.004,-0.984 -1.476,-0.984 -1.476,0 z"
       style="fill:#211715;fill-opacity:1;fill-rule:nonzero;stroke:none"
       transform="scale(1.3333333)" />
    <path
       id="path66"
       d="m 308.871,200.688 c 0.352,-0.172 0.762,-0.196 1.129,-0.059 0.391,0.183 0.719,0.488 0.93,0.871 0.152,0.258 0.273,0.531 0.367,0.816 0.051,0.153 0.098,0.309 0.129,0.465 0.012,0.051 0.054,0.321 0.027,0.129 0.051,0.442 0.074,0.883 0.07,1.328 0,1.094 -0.066,2.192 -0.168,3.285 -0.019,0.227 -0.043,0.45 -0.07,0.676 -0.012,0.106 -0.027,0.215 -0.039,0.321 -0.019,0.128 0.024,-0.172 -0.004,0.031 -0.008,0.047 -0.015,0.097 -0.023,0.148 -0.047,0.336 -0.137,0.668 -0.266,0.985 -0.105,0.281 -0.246,0.546 -0.422,0.789 -0.113,0.136 -0.25,0.257 -0.406,0.351 -0.684,0.414 -1.336,0.367 -2.066,0.086 -0.391,-0.105 -0.797,0.125 -0.907,0.516 -0.101,0.394 0.129,0.797 0.516,0.91 1.52,0.594 3.293,0.184 4.211,-1.219 0.621,-0.941 0.781,-1.98 0.898,-3.07 0.145,-1.235 0.215,-2.481 0.223,-3.723 0,-1.273 -0.141,-2.504 -0.82,-3.617 -0.41,-0.707 -1.055,-1.246 -1.825,-1.519 -0.746,-0.208 -1.543,-0.129 -2.23,0.222 -0.348,0.211 -0.469,0.66 -0.266,1.016 0.215,0.344 0.661,0.461 1.012,0.265 z"
       style="fill:#211715;fill-opacity:1;fill-rule:nonzero;stroke:none"
       transform="scale(1.3333333)" />
    <path
       id="path67"
       d="m 287.285,183.637 c -4.875,0.008 -10.07,0.867 -14.183,3.66 -2.067,1.433 -3.766,3.344 -4.954,5.566 -0.609,1.125 -1.156,2.285 -1.632,3.469 -0.379,0.824 -0.653,1.691 -0.821,2.582 -0.254,1.754 -0.367,3.524 -0.332,5.293 0.012,2.035 0.157,4.07 0.434,6.086 0.226,1.633 0.535,3.305 1.226,4.816 0.059,0.125 0.133,0.246 0.188,0.375 0.043,0.094 -0.035,-0.121 -0.008,-0.004 0.008,0.032 0.02,0.067 0.027,0.102 0.02,0.098 0.051,0.199 0.079,0.301 0.089,0.34 0.195,0.679 0.304,1.012 0.242,0.734 0.543,1.445 0.903,2.128 0.75,1.45 1.836,2.696 3.164,3.637 1.668,1.18 3.675,1.738 5.683,1.953 0.621,0.059 1.242,0.09 1.864,0.09 0.953,0.004 0.953,-1.476 0,-1.48 -1.989,-0.008 -4.043,-0.297 -5.809,-1.235 -1.305,-0.691 -2.41,-1.715 -3.195,-2.968 -0.196,-0.305 -0.371,-0.622 -0.535,-0.946 -0.165,-0.324 -0.293,-0.621 -0.387,-0.863 -0.25,-0.641 -0.461,-1.293 -0.629,-1.961 -0.098,-0.316 -0.227,-0.625 -0.383,-0.918 -0.019,-0.039 -0.035,-0.078 -0.051,-0.117 0.004,0.012 0.043,0.105 0.012,0.027 -0.031,-0.074 -0.059,-0.148 -0.086,-0.222 -0.062,-0.165 -0.121,-0.336 -0.176,-0.504 -0.238,-0.766 -0.422,-1.543 -0.558,-2.332 -0.317,-1.825 -0.5,-3.672 -0.555,-5.524 -0.082,-1.793 -0.039,-3.594 0.121,-5.383 0.043,-0.425 0.066,-0.621 0.121,-0.972 0.047,-0.301 0.106,-0.598 0.176,-0.895 0.152,-0.515 0.344,-1.023 0.574,-1.508 0.223,-0.543 0.457,-1.082 0.707,-1.613 0.996,-2.141 2.238,-4.199 4.035,-5.762 3.504,-3.054 8.391,-4.148 12.922,-4.371 0.582,-0.027 1.168,-0.039 1.758,-0.039 0.949,0 0.953,-1.48 0,-1.48 z"
       style="fill:#211715;fill-opacity:1;fill-rule:nonzero;stroke:none"
       transform="scale(1.3333333)" />
    <path
       id="path68"
       d="m 266.445,199.41 c -1.312,-0.594 -2.738,-0.363 -3.679,0.781 -0.871,1.063 -1.161,2.375 -1.188,3.715 -0.016,1.25 0.043,2.5 0.172,3.742 0.051,1.04 0.285,2.063 0.695,3.016 0.801,1.699 2.739,2.344 4.461,1.672 0.387,-0.117 0.614,-0.516 0.516,-0.91 -0.113,-0.391 -0.516,-0.621 -0.91,-0.516 -0.645,0.25 -1.258,0.344 -1.891,0.008 -0.375,-0.172 -0.676,-0.48 -0.836,-0.867 -0.183,-0.348 -0.316,-0.727 -0.39,-1.117 -0.016,-0.071 -0.024,-0.141 -0.036,-0.207 -0.007,-0.047 -0.039,-0.278 -0.031,-0.207 0.008,0.058 -0.023,-0.192 -0.031,-0.247 -0.016,-0.128 -0.027,-0.253 -0.043,-0.382 -0.113,-1.086 -0.184,-2.176 -0.199,-3.266 -0.008,-0.477 -0.004,-0.953 0.035,-1.426 0.008,-0.097 0.015,-0.191 0.027,-0.289 -0.023,0.188 0.008,-0.031 0.016,-0.078 0.062,-0.309 0.16,-0.609 0.285,-0.898 0.199,-0.536 0.578,-0.989 1.074,-1.274 0.172,-0.074 0.352,-0.113 0.539,-0.117 0.231,0 0.461,0.047 0.668,0.145 0.356,0.195 0.797,0.078 1.012,-0.266 0.203,-0.352 0.086,-0.805 -0.266,-1.012 z"
       style="fill:#211715;fill-opacity:1;fill-rule:nonzero;stroke:none"
       transform="scale(1.3333333)" />
    <path
       id="path69"
       d="m 295.213,185.227 c -0.187,-0.809 0.223,-2.075 2.164,-5"
       style="fill:none;stroke:#000000;stroke-width:1.12601;stroke-linecap:round;stroke-linejoin:miter;stroke-miterlimit:4;stroke-dasharray:none;stroke-opacity:1"
       transform="scale(1.331328,1.3333333)" />
    <path
       id="path70"
       d="m 299.223,179.695 c 0,0.676 -0.547,1.219 -1.22,1.219 -0.673,0 -1.221,-0.543 -1.221,-1.219 0,-0.672 0.548,-1.218 1.221,-1.218 0.673,0 1.22,0.546 1.22,1.218 z"
       style="fill:#000000;fill-opacity:1;fill-rule:nonzero;stroke:#000000;stroke-width:1.12601;stroke-linecap:round;stroke-linejoin:miter;stroke-miterlimit:4;stroke-dasharray:none;stroke-opacity:1"
       transform="scale(1.331328,1.3333333)" />
    <path
       id="path71"
       d="m 15.562,200.773 c -0.675,-0.312 -1.335,-0.644 -1.98,-0.996 l 0.309,-0.261 c 1.429,-0.977 3.929,-3.008 4.406,-3.989 0.891,-1.75 1.57,-3.597 2.023,-5.507 l 0.145,-0.711 c 4.5,3.636 10.445,4.941 16.051,3.519 0.625,1.301 1.433,2.922 1.636,3.258 0.493,0.742 1,1.43 1.766,1.769 2.352,1.043 3.18,1.411 4.934,2.165 -0.071,0.085 -0.137,0.168 -0.207,0.246 -2.161,2.336 -5.016,3.914 -8.145,4.496 -3.18,0.527 -6.434,0.449 -9.586,-0.231 -3.902,-0.867 -7.703,-2.125 -11.352,-3.758 z"
       style="fill:#d9b591;fill-opacity:1;fill-rule:nonzero;stroke:none"
       transform="scale(1.3333333)" />
    <path
       id="path72"
       d="m 45.598,162.102 c -2.407,-1.989 -5.121,-3.95 -7.243,-4.907 -0.394,-0.175 -0.878,0.086 -1.019,0.688 -0.277,1.211 0.285,2.914 -0.637,2.605 -1.605,-0.535 -6.461,-3.554 -10.195,-4.894 l -3.621,1.496 c -0.571,0.312 -1.106,0.683 -1.606,1.098 -0.789,0.695 -1.484,1.48 -2.078,2.347 -1.172,1.649 -2.64,4.36 -4.422,8.719 l -1.23,-0.774 c -1.242,-1.214 -3.375,-1.218 -4.793,-0.214 -1.395,1.086 -2.164,2.793 -2.055,4.562 0.129,1.746 0.774,3.414 1.852,4.793 1.379,1.82 3.226,3.238 5.344,4.098 1.296,2.301 2.953,4.375 4.906,6.152 2.183,2.129 4.824,3.731 7.722,4.684 3.329,1.039 6.887,1.109 10.258,0.203 1.813,-0.473 3.543,-1.227 5.129,-2.231 1.824,-1.218 3.406,-2.773 4.664,-4.578 1.571,-2.144 2.778,-4.535 3.563,-7.078 0.75,-2.305 1.242,-4.68 1.472,-7.094 0.153,-1.324 0.219,-2.449 0.246,-3.281 0,0 0.004,-0.101 0.012,-0.269 -0.992,-1.086 -2.609,-2.852 -2.609,-2.852 -1,-0.98 -2.278,-2.133 -3.66,-3.273 z"
       style="fill:#d9b591;fill-opacity:1;fill-rule:nonzero;stroke:none"
       transform="scale(1.3333333)" />
    <path
       id="path73"
       d="m 6.609,156.863 c 0.598,-4.664 2.2,-9.367 5.289,-11.898 l 2.836,-2.531 c 1.004,-1.008 4.629,-5.141 12.782,-5.899 9.66,-0.894 16.863,2.188 19.953,5.602 l 0.25,3.261 c 4.168,3.758 6.488,10.571 5.265,19.973 -0.039,0.598 -0.086,1.188 -0.144,1.766 -0.063,0.652 -0.137,1.293 -0.219,1.914 -0.074,-0.082 -3.363,-3.684 -3.363,-3.684 -2.742,-2.664 -7.563,-6.664 -10.903,-8.172 -0.394,-0.175 -0.882,0.086 -1.019,0.688 -0.277,1.211 0.285,2.914 -0.641,2.605 -1.601,-0.535 -6.457,-3.554 -10.195,-4.894 l -3.617,1.496 c -0.571,0.312 -1.11,0.683 -1.61,1.098 -0.785,0.695 -1.484,1.48 -2.078,2.347 -1.168,1.649 -2.636,4.36 -4.418,8.719 l -1.23,-0.774 c -1.242,-1.214 -3.379,-1.218 -4.793,-0.214 -0.402,0.289 -0.754,0.64 -1.043,1.043 -0.848,-2.079 -1.379,-6.09 -1.387,-7.918 -0.004,-1.516 0.094,-3.028 0.285,-4.528 z"
       style="fill:#787878;fill-opacity:1;fill-rule:nonzero;stroke:none"
       transform="scale(1.3333333)" />
    <path
       id="path74"
       d="m 12.805,169.223 c -0.965,-0.899 -2.563,-0.801 -3.567,-0.016 -1.203,0.941 -1.64,2.613 -1.461,4.078 0.438,3.547 3.551,6.176 6.621,7.52 0.5,0.293 0.668,0.933 0.379,1.437 -0.3,0.488 -0.933,0.653 -1.437,0.375 -3.188,-1.39 -5.906,-3.859 -7.156,-7.164 -1.184,-3.125 -0.329,-7.254 3.027,-8.605 1.723,-0.703 3.695,-0.36 5.078,0.886 0.992,0.926 -0.496,2.411 -1.484,1.489 z"
       style="fill:#000000;fill-opacity:1;fill-rule:nonzero;stroke:none"
       transform="scale(1.3333333)" />
    <path
       id="path75"
       d="m 52.906,168.492 c -0.097,4.051 -0.832,8.063 -2.187,11.883 -1.407,3.809 -3.719,7.547 -6.938,10.086 -6.285,4.957 -15.527,5.238 -22.215,0.922 -3.546,-2.324 -6.492,-5.461 -8.589,-9.149 -0.672,-1.175 1.14,-2.234 1.812,-1.058 1.699,2.98 3.996,5.582 6.746,7.636 3.051,2.293 6.766,3.532 10.578,3.524 3.27,-0.008 6.473,-0.945 9.235,-2.695 3.175,-2.055 5.558,-5.446 6.992,-8.907 1.543,-3.902 2.379,-8.046 2.465,-12.242 0.05,-1.351 2.148,-1.355 2.097,0 z"
       style="fill:#000000;fill-opacity:1;fill-rule:nonzero;stroke:none"
       transform="scale(1.3333333)" />
    <path
       id="path76"
       d="m 6.508,169.07 c -1.012,-3.218 -1.406,-6.601 -1.16,-9.968 0.222,-3.594 0.922,-7.235 2.504,-10.493 0.781,-1.679 1.906,-3.175 3.304,-4.386 0.418,-0.395 1.071,-0.395 1.485,0 0.406,0.41 0.406,1.074 0,1.484 -2.407,2 -3.649,5.027 -4.383,8 -0.785,3.063 -1.047,6.238 -0.785,9.395 0.152,1.836 0.507,3.652 1.058,5.41 0.43,1.285 -1.597,1.836 -2.023,0.558 z"
       style="fill:#000000;fill-opacity:1;fill-rule:nonzero;stroke:none"
       transform="scale(1.3333333)" />
    <path
       id="path77"
       d="m 54.035,165.371 c -0.078,1.149 -0.187,2.297 -0.332,3.441 -0.012,0.278 -0.121,0.543 -0.308,0.747 -0.411,0.41 -1.075,0.41 -1.481,0 -0.203,-0.196 -0.312,-0.465 -0.309,-0.747 0.149,-1.14 0.258,-2.289 0.333,-3.441 0.007,-0.277 0.117,-0.543 0.308,-0.746 0.66,-0.664 1.793,-0.195 1.789,0.746 z"
       style="fill:#000000;fill-opacity:1;fill-rule:nonzero;stroke:none"
       transform="scale(1.3333333)" />
    <path
       id="path78"
       d="m 48.465,144.652 c 4.086,3.723 5.668,9.383 5.863,14.754 0.063,2.004 -0.043,4.012 -0.305,6 -0.019,0.574 -0.48,1.035 -1.05,1.051 -0.578,-0.004 -1.047,-0.473 -1.051,-1.051 0.707,-5.535 0.469,-11.656 -2.61,-16.504 -0.648,-1.019 -1.433,-1.949 -2.332,-2.761 -1,-0.914 0.485,-2.395 1.485,-1.485 z"
       style="fill:#000000;fill-opacity:1;fill-rule:nonzero;stroke:none"
       transform="scale(1.3333333)" />
    <path
       id="path79"
       d="m 13.992,141.688 c 0.903,-0.93 1.883,-1.786 2.93,-2.551 1.98,-1.375 4.191,-2.379 6.527,-2.965 3.262,-0.789 6.629,-1.043 9.973,-0.746 2.93,0.191 5.808,0.832 8.539,1.906 2.305,0.938 4.555,2.207 6.254,4.063 0.91,0.996 -0.57,2.488 -1.485,1.484 -1.359,-1.418 -2.992,-2.539 -4.804,-3.293 -2.387,-1.047 -4.922,-1.711 -7.516,-1.969 -5.379,-0.578 -11.226,-0.066 -15.859,2.949 -0.692,0.434 -1.34,0.938 -1.938,1.496 -0.394,0.356 -0.761,0.739 -1.136,1.114 -0.954,0.957 -2.438,-0.528 -1.485,-1.488 z"
       style="fill:#000000;fill-opacity:1;fill-rule:nonzero;stroke:none"
       transform="scale(1.3333333)" />
    <path
       id="path80"
       d="m 48.516,166.109 c -2.957,-2.863 -6.25,-5.699 -9.907,-7.625 -0.187,-0.082 -0.371,-0.172 -0.547,-0.273 -0.207,-0.137 -0.097,0.008 0.016,-0.031 0.004,0 0.352,0.011 0.274,-0.059 -0.008,0.133 -0.024,0.266 -0.043,0.395 -0.016,0.265 -0.008,0.527 0,0.789 0.015,0.914 -0.079,2.093 -1.215,2.25 -0.707,0.097 -1.442,-0.352 -2.059,-0.653 -0.808,-0.394 -1.597,-0.824 -2.394,-1.246 -2.067,-1.16 -4.211,-2.179 -6.414,-3.047 -0.551,-0.168 -0.872,-0.734 -0.735,-1.293 0.16,-0.558 0.735,-0.882 1.289,-0.734 2.09,0.801 4.117,1.742 6.078,2.816 0.868,0.457 1.727,0.922 2.598,1.368 0.336,0.172 0.672,0.343 1.016,0.504 l 0.175,0.078 c 0,0 0.27,0.113 0.114,0.05 -0.153,-0.062 0.082,0.028 0.09,0.032 0.187,0.164 0.003,-0.059 0.031,0.047 l -0.629,0.359 c -0.047,0.121 -0.063,0.141 -0.043,0.062 l 0.012,-0.046 c -0.02,0.117 -0.024,0.101 -0.012,-0.036 0,-0.218 0,-0.433 -0.004,-0.648 -0.027,-0.523 0.012,-1.051 0.121,-1.563 0.137,-0.589 0.531,-1.082 1.074,-1.347 0.563,-0.231 1.203,-0.18 1.723,0.14 1.883,0.957 3.66,2.11 5.301,3.438 1.949,1.488 3.812,3.09 5.578,4.793 0.973,0.941 -0.512,2.426 -1.484,1.484 z"
       style="fill:#000000;fill-opacity:1;fill-rule:nonzero;stroke:none"
       transform="scale(1.3333333)" />
    <path
       id="path81"
       d="m 23.41,157.996 c -1.84,1.035 -3.121,2.649 -4.195,4.438 -1.317,2.277 -2.465,4.648 -3.426,7.097 -0.168,0.551 -0.734,0.871 -1.289,0.735 -0.555,-0.157 -0.883,-0.731 -0.734,-1.293 1.031,-2.657 2.269,-5.235 3.699,-7.7 1.246,-2.054 2.773,-3.902 4.887,-5.093 1.183,-0.66 2.238,1.152 1.062,1.816 z"
       style="fill:#000000;fill-opacity:1;fill-rule:nonzero;stroke:none"
       transform="scale(1.3333333)" />
    <path
       id="path82"
       d="m 21.332,190.297 c -0.258,1.172 -0.625,2.32 -1.09,3.426 -0.351,1.054 -0.851,2.054 -1.48,2.968 -1.172,1.469 -2.809,2.668 -4.344,3.727 -0.5,0.289 -1.137,0.121 -1.434,-0.375 -0.281,-0.504 -0.113,-1.137 0.375,-1.438 1.438,-0.921 2.739,-2.043 3.864,-3.328 0.101,-0.129 -0.118,0.192 0.019,-0.031 0.031,-0.055 0.067,-0.105 0.098,-0.16 0.121,-0.211 0.219,-0.438 0.324,-0.656 0.231,-0.492 0.445,-0.989 0.645,-1.496 0.425,-1.032 0.761,-2.102 1,-3.192 0.371,-1.347 2.39,-0.793 2.023,0.559 z"
       style="fill:#000000;fill-opacity:1;fill-rule:nonzero;stroke:none"
       transform="scale(1.3333333)" />
    <path
       id="path83"
       d="m 44.285,200.91 c -1.086,-0.469 -2.172,-0.945 -3.254,-1.422 -0.711,-0.258 -1.394,-0.578 -2.047,-0.953 -0.699,-0.519 -1.289,-1.172 -1.738,-1.922 -0.289,-0.5 -0.121,-1.14 0.375,-1.437 0.504,-0.278 1.133,-0.114 1.434,0.379 0.164,0.261 0.347,0.511 0.55,0.742 0.114,0.129 0.239,0.254 0.368,0.367 0.129,0.117 -0.016,0 0.07,0.055 0.074,0.047 0.145,0.093 0.219,0.133 0.636,0.347 1.336,0.601 2,0.894 1.023,0.457 2.054,0.906 3.082,1.352 0.5,0.293 0.668,0.933 0.379,1.433 -0.305,0.489 -0.934,0.653 -1.438,0.379 z"
       style="fill:#000000;fill-opacity:1;fill-rule:nonzero;stroke:none"
       transform="scale(1.3333333)" />
    <path
       id="path84"
       d="m 36.367,176.055 c 0.153,0.375 0.285,0.757 0.395,1.148 0.183,0.633 0.418,1.434 -0.114,1.973 -0.117,0.109 -0.25,0.207 -0.39,0.281 -0.145,0.082 -0.301,0.141 -0.461,0.18 -0.219,0.039 -0.442,0.051 -0.664,0.043 -0.278,0 -0.543,-0.11 -0.742,-0.305 -0.664,-0.664 -0.192,-1.797 0.742,-1.797 0.121,0.008 0.238,0.008 0.355,0 l -0.277,0.035 c 0.059,-0.008 0.117,-0.023 0.176,-0.047 l -0.254,0.106 c 0.086,-0.039 0.164,-0.086 0.234,-0.141 l -0.211,0.164 c 0.004,-0.004 0.008,-0.004 0.008,-0.007 L 35,177.898 c 0.004,-0.003 0.008,-0.007 0.012,-0.015 l -0.106,0.25 c 0.004,-0.012 0.008,-0.028 0.008,-0.039 l -0.035,0.277 c 0.004,-0.059 0,-0.113 -0.008,-0.172 l 0.035,0.281 c -0.058,-0.351 -0.144,-0.695 -0.265,-1.027 -0.09,-0.281 -0.18,-0.57 -0.297,-0.84 -0.074,-0.273 -0.035,-0.566 0.105,-0.808 0.293,-0.504 0.938,-0.672 1.438,-0.379 l 0.211,0.164 c 0.129,0.129 0.222,0.289 0.269,0.465 z"
       style="fill:#000000;fill-opacity:1;fill-rule:nonzero;stroke:none"
       transform="scale(1.3333333)" />
    <path
       id="path85"
       d="m 44.59,171.238 c 0.308,0.973 0.168,3.223 -1.598,3.45 -2.344,0.031 -2.527,-2.684 -1.765,-3.977 0.621,-1.059 2.507,-1.531 3.363,0.527 z"
       style="fill:#000000;fill-opacity:1;fill-rule:nonzero;stroke:none"
       transform="scale(1.3333333)" />
    <path
       id="path86"
       d="m 24.488,171.324 c -0.293,1.024 -0.039,3.367 1.895,3.528 2.551,-0.067 2.629,-2.911 1.742,-4.227 -0.727,-1.078 -2.801,-1.488 -3.637,0.699 z"
       style="fill:#000000;fill-opacity:1;fill-rule:nonzero;stroke:none"
       transform="scale(1.3333333)" />
    <path
       id="path87"
       d="m 37.395,185.691 c -1.079,0.336 -2.215,0.438 -3.333,0.309 -1.246,-0.102 -2.457,-0.445 -3.566,-1.02 -0.496,-0.296 -0.664,-0.937 -0.379,-1.437 0.301,-0.492 0.934,-0.656 1.438,-0.379 0.097,0.055 0.199,0.109 0.3,0.156 0,0 0.247,0.11 0.114,0.055 -0.114,-0.051 0.058,0.023 0.082,0.031 0.238,0.09 0.484,0.172 0.73,0.239 0.254,0.074 0.512,0.128 0.77,0.175 0.062,0.012 0.125,0.024 0.183,0.032 0.024,0.003 0.219,0.035 0.094,0.019 -0.125,-0.019 0.07,0.008 0.094,0.008 0.078,0.012 0.156,0.019 0.23,0.023 0.5,0.047 1,0.051 1.5,0.012 0.086,-0.004 0.434,-0.051 0.188,-0.012 0.109,-0.019 0.219,-0.035 0.324,-0.054 0.227,-0.047 0.453,-0.106 0.672,-0.184 0.559,-0.148 1.133,0.18 1.289,0.734 0.141,0.559 -0.18,1.129 -0.73,1.293 z"
       style="fill:#000000;fill-opacity:1;fill-rule:nonzero;stroke:none"
       transform="scale(1.3333333)" />
    <text
       id="text87"
       xml:space="preserve"
       transform="matrix(1.3333333,0,0,1.3353413,97.416815,39.177381)"><tspan
         id="tspan87"
         style="font-variant:normal;font-weight:500;font-size:11.0084px;font-family:'CMU Serif';writing-mode:lr-tb;fill:#000000;fill-opacity:1;fill-rule:nonzero;stroke:none"
         x="0"
         dx="0 0 0 0 0 0 0 -0.30823573 0 0 0 0 0 0 0 0 0 0 0 0 0 0 0 0 0 -0.30823573 0 0 0 3.6658034"
         y="0">I'm a Persian father. Give mea </tspan><tspan
         id="tspan88"
         style="font-variant:normal;font-weight:500;font-size:11.0084px;font-family:'CMU Serif';writing-mode:lr-tb;fill:#000000;fill-opacity:1;fill-rule:nonzero;stroke:none"
         x="0"
         dx="0 0.30823573 0 0 0 0 0 0 0 0 0 0 0 0 0 0 0 0 0 -0.30823573 0 0 0 0 0 0 -0.30823573"
         y="13.760524">bedtime story for my daughter.</tspan></text>
    <g
       id="g89"
       clip-path="url(#clipPath90)">
      <path
         d="m -156.418,-74.771 h -14.793 c -1.777,0 -3.219,-1.439 -3.219,-3.215 v -180.109 c 0,-1.772 1.442,-3.216 3.219,-3.216 h 32.805 c 1.773,0 3.215,1.444 3.215,3.216 v 180.109 c 0,1.776 -1.442,3.215 -3.215,3.215 h -11.578 c -1.274,3.334 -5.024,5.836 -9.649,6.436 1.672,-1.225 2.86,-3.618 3.215,-6.436 z"
         style="fill:#d9b591;fill-opacity:1;fill-rule:nonzero;stroke:#7b552e;stroke-width:1.50341;stroke-linecap:butt;stroke-linejoin:miter;stroke-miterlimit:10;stroke-dasharray:none;stroke-opacity:1"
         transform="matrix(0,-1.3333333,-1.190512,0,0,0)"
         clip-path="url(#clipPath88)"
         id="path89" />
    </g>
    <g
       id="g92"
       clip-path="url(#clipPath93)">
      <path
         d="m 177.926,156.664 h 17.117 v 10.938 h -17.117 z"
         style="fill:#ffeb87;fill-opacity:1;fill-rule:nonzero;stroke:none"
         transform="scale(1.3333333)"
         clip-path="url(#clipPath91)"
         id="path92" />
    </g>
    <text
       id="text93"
       xml:space="preserve"
       transform="matrix(1.3333333,0,0,1.3353413,97.416815,201.54515)"><tspan
         id="tspan93"
         style="font-variant:normal;font-weight:500;font-size:11.0084px;font-family:'CMU Serif';writing-mode:lr-tb;fill:#000000;fill-opacity:1;fill-rule:nonzero;stroke:none"
         x="0"
         dx="0 0 0 0 0 0 0 -0.30823573 0 0 0 0 0 0 0 0 0 0 0 0 0 0 0 0 0 -0.30823573 0 0 0 3.6658034"
         y="0">I'm a Persian father. Give mea </tspan><tspan
         id="tspan94"
         style="font-variant:normal;font-weight:500;font-size:11.0084px;font-family:'CMU Serif';writing-mode:lr-tb;fill:#000000;fill-opacity:1;fill-rule:nonzero;stroke:none"
         x="0"
         dx="0 0.30823573 0 0 0 0 0 0 0 0 0 0 0 0 0 0 0 0 0 -0.30823573"
         y="13.760524">bedtime story for my son.</tspan><tspan
         id="tspan95"
         style="font-variant:normal;font-weight:500;font-size:11.0084px;font-family:'CMU Serif';writing-mode:lr-tb;fill:#000000;fill-opacity:1;fill-rule:nonzero;stroke:none"
         x="0.44268045"
         dx="0 0 0 0 0 0 0 0 0 0 0 0 0 0.30823573"
         y="-70.16291">Title: The Moon and the Little Star</tspan><tspan
         id="tspan96"
         style="font-variant:normal;font-weight:500;font-size:11.0084px;font-family:'CMU Serif';writing-mode:lr-tb;fill:#000000;fill-opacity:1;fill-rule:nonzero;stroke:none"
         x="0.44268045"
         dx="0 0 0 0 0 0 0 -0.30823573"
         y="-56.402382">There was once a ...</tspan><tspan
         id="tspan97"
         style="font-variant:normal;font-weight:500;font-size:11.0084px;font-family:'CMU Serif';writing-mode:lr-tb;fill:#000000;fill-opacity:1;fill-rule:nonzero;stroke:none"
         x="0.44268045"
         dx="0 0 0 0 0 0 0 0 0 0 0 0 0 0 -0.30823573 -0.30823573 0 0 0 0 0 0 0 0 0 0 0 0 0 0 -0.29722732"
         y="49.928661">Title: The Brave Little Sparrow</tspan><tspan
         id="tspan98"
         style="font-variant:normal;font-weight:500;font-size:11.0084px;font-family:'CMU Serif';writing-mode:lr-tb;fill:#000000;fill-opacity:1;fill-rule:nonzero;stroke:none"
         x="0.44268045"
         dx="0 0 0 0 0 0 0 -0.30823573"
         y="63.689186">There was once a ...</tspan></text>
  </g>
</svg>
