<?xml version="1.0" encoding="UTF-8" standalone="no"?>
<!-- Created with Inkscape (http://www.inkscape.org/) -->

<svg
   width="74.527382mm"
   height="33.803707mm"
   viewBox="0 0 74.527383 33.803707"
   version="1.1"
   id="svg1"
   inkscape:version="1.4 (e7c3feb100, 2024-10-09)"
   sodipodi:docname="difficulty_search.svg"
   inkscape:export-filename="pipeline.pdf"
   inkscape:export-xdpi="96"
   inkscape:export-ydpi="96"
   xml:space="preserve"
   xmlns:inkscape="http://www.inkscape.org/namespaces/inkscape"
   xmlns:sodipodi="http://sodipodi.sourceforge.net/DTD/sodipodi-0.dtd"
   xmlns="http://www.w3.org/2000/svg"
   xmlns:svg="http://www.w3.org/2000/svg"><sodipodi:namedview
     id="namedview1"
     pagecolor="#ffffff"
     bordercolor="#000000"
     borderopacity="0.25"
     inkscape:showpageshadow="2"
     inkscape:pageopacity="0.0"
     inkscape:pagecheckerboard="0"
     inkscape:deskcolor="#d1d1d1"
     inkscape:document-units="mm"
     inkscape:zoom="2.00005"
     inkscape:cx="193.24517"
     inkscape:cy="-45.498864"
     inkscape:window-width="2560"
     inkscape:window-height="1371"
     inkscape:window-x="0"
     inkscape:window-y="0"
     inkscape:window-maximized="1"
     inkscape:current-layer="layer1"
     showgrid="false" /><defs
     id="defs1"><marker
       style="overflow:visible"
       id="ArrowWideRounded"
       refX="0"
       refY="0"
       orient="auto-start-reverse"
       inkscape:stockid="Wide, rounded arrow"
       markerWidth="1"
       markerHeight="1"
       viewBox="0 0 1 1"
       inkscape:isstock="true"
       inkscape:collect="always"
       preserveAspectRatio="xMidYMid"><path
         style="fill:none;stroke:context-stroke;stroke-width:1;stroke-linecap:round"
         d="M 3,-3 0,0 3,3"
         transform="rotate(180,0.125,0)"
         sodipodi:nodetypes="ccc"
         id="path2" /></marker><rect
       x="53.113819"
       y="46.412544"
       width="60.419636"
       height="35.71706"
       id="rect62" /><rect
       x="53.113819"
       y="46.412544"
       width="60.419636"
       height="35.71706"
       id="rect63" /><rect
       x="53.113819"
       y="46.412544"
       width="60.419636"
       height="35.71706"
       id="rect64" /><rect
       x="53.113819"
       y="46.412544"
       width="60.419636"
       height="35.71706"
       id="rect65" /><rect
       x="53.113819"
       y="46.412544"
       width="60.419636"
       height="35.71706"
       id="rect66" /><rect
       x="53.113819"
       y="46.412544"
       width="60.419636"
       height="35.71706"
       id="rect67" /><rect
       x="53.113819"
       y="46.412544"
       width="60.419636"
       height="35.71706"
       id="rect68" /></defs><g
     inkscape:label="Ebene 1"
     inkscape:groupmode="layer"
     id="layer1"
     transform="translate(-87.609221,-3.2649159)"><path
       style="fill:#f7f7f7;fill-opacity:1;stroke:#000000;stroke-width:0.43815;stroke-linejoin:round;stroke-dasharray:2, 1;stroke-dashoffset:0;stroke-opacity:1"
       d="m 92.023515,30.992736 c -0.266298,-0.185398 -1.95124,-1.89248 -2.245056,-2.245059 -1.052844,-1.263412 -2.297762,-3.074627 -1.861754,-4.818657 0.08127,-0.325077 0.314236,-0.871305 0.43806,-1.149908 0.151415,-0.340685 0.355269,-0.752152 0.602332,-1.040392 0.382432,-0.44617 0.900472,-0.7362 1.31418,-1.149907 1.133826,-1.133826 2.031256,-2.449783 2.628358,-3.942539 0.07579,-0.189473 0.224293,-0.349598 0.273787,-0.547574 0.06857,-0.27428 0.09088,-1.309563 0.109515,-1.53321 0.09555,-1.146554 0.192452,-3.492258 0.766604,-4.544871 0.247521,-0.4537869 0.674882,-0.784401 1.040392,-1.149907 1.26945,-1.2694467 2.95881,-1.6339161 4.65439,-1.9165117 1.716137,-0.2860228 3.452397,-0.5352576 5.201957,-0.43806 1.18622,0.065901 2.48751,0.1687488 3.66875,0 0.9257,-0.1322414 2.81875,-0.640818 3.55924,-1.149907 0.89375,-0.6144527 1.27824,-1.1286259 2.40933,-1.4236946 1.77439,-0.4628821 3.23904,-0.2428946 5.03769,-0.328545 0.68169,-0.032461 0.32109,-0.085538 1.0404,-0.1095147 1.15221,-0.038407 2.30726,-0.042814 3.44972,0.1095147 1.02382,0.1365094 3.1875,1.1784669 3.01166,2.4093294 -0.20631,1.4442318 -1.87024,3.0749092 -2.84739,4.0520539 -0.45392,0.453921 -0.86013,0.96965 -1.31418,1.423694 -0.40008,0.400082 -1.04039,1.060641 -1.04039,1.697482 0,0.583175 0.16674,1.111155 0.3833,1.642725 0.62063,1.523357 1.40342,2.908047 2.46409,4.161568 0.88348,1.044112 2.12117,2.161542 2.73788,3.394964 0.22897,0.45795 0.24393,1.3541 0.32854,1.861755 0.32166,1.929968 0.7687,3.605605 0.27379,5.585262 -0.20205,0.808183 -0.53933,1.517904 -0.93088,2.245056 -0.70214,1.303981 -1.18319,1.879674 -2.5736,2.62836 -0.20328,0.109458 -0.43967,0.141378 -0.65709,0.21903 -0.56995,0.203555 -1.12802,0.46727 -1.69748,0.65709 -0.45684,0.152281 -0.95844,0.09214 -1.4237,0.21903 -0.27632,0.07536 -0.55153,0.200197 -0.82136,0.273789 -1.20038,0.327371 -2.58605,0.461237 -3.83303,0.383301 -1.82049,-0.113781 -3.59964,-0.665146 -5.42099,-0.711848 -1.47384,-0.03779 -2.85371,0.396875 -4.27109,0.711848 -0.8103,0.180068 -1.64024,0.202147 -2.46409,0.273786 -0.51053,0.0444 -1.2406,0.14759 -1.69748,0.109516 -0.58128,-0.04844 -0.85662,-0.267287 -1.36894,-0.43806 -0.5753,-0.191767 -1.232387,-0.12333 -1.806997,-0.328543 -0.33858,-0.120926 -0.65832,-0.289285 -0.98563,-0.43806 -1.45029,-0.659223 -2.5339,-1.817034 -3.833024,-2.683119 -0.09724,-0.06483 -0.141384,-0.186433 -0.21903,-0.273785 C 93.514027,31.89564 92.9397,31.435529 92.023515,30.992736 Z"
       id="path62"
       sodipodi:nodetypes="sssssssscsssssssssssssssssssssssscsssssssssss" /><path
       style="fill:none;fill-opacity:1;stroke:#000000;stroke-width:0.437999;stroke-linejoin:round;stroke-dasharray:none;stroke-dashoffset:0;stroke-opacity:1;marker-end:url(#ArrowWideRounded)"
       d="m 121.88852,30.781992 c 3.7042,-1.904597 4.28841,-1.870644 8.75069,-2.085794"
       id="path72"
       sodipodi:nodetypes="cc" /><text
       xml:space="preserve"
       transform="matrix(0.26458333,0,0,0.26458333,81.333834,-1.1513438)"
       id="text62"
       style="font-style:normal;font-variant:normal;font-weight:normal;font-stretch:normal;font-size:8px;line-height:0.8;font-family:Serif;-inkscape-font-specification:Serif;text-align:center;letter-spacing:0px;word-spacing:0px;writing-mode:lr-tb;direction:ltr;white-space:pre;shape-inside:url(#rect62);display:inline;fill:#000000;fill-opacity:1;stroke:none;stroke-width:1.65543;stroke-linejoin:round;stroke-dasharray:7.55906, 3.77953;stroke-dashoffset:0;stroke-opacity:1"
       x="22.932285"
       y="0"><tspan
         x="63.522461"
         y="51.690234"
         id="tspan2"><tspan
           style="font-style:italic"
           id="tspan1">corporate
</tspan></tspan><tspan
         x="68.510742"
         y="58.090236"
         id="tspan4"><tspan
           style="font-style:italic"
           id="tspan3">finance</tspan></tspan></text><text
       xml:space="preserve"
       transform="matrix(0.26458333,0,0,0.26458333,91.917168,4.1403229)"
       id="text63"
       style="font-style:normal;font-variant:normal;font-weight:normal;font-stretch:normal;font-size:8px;line-height:0.8;font-family:Serif;-inkscape-font-specification:Serif;text-align:center;letter-spacing:0px;word-spacing:0px;writing-mode:lr-tb;direction:ltr;white-space:pre;shape-inside:url(#rect63);display:inline;fill:#000000;fill-opacity:1;stroke:none;stroke-width:1.65543;stroke-linejoin:round;stroke-dasharray:7.55906, 3.77953;stroke-dashoffset:0;stroke-opacity:1"
       x="22.932285"
       y="0"><tspan
         x="64.297852"
         y="51.690234"
         id="tspan6"><tspan
           style="font-style:italic"
           id="tspan5">cash flow
</tspan></tspan><tspan
         x="60.454102"
         y="58.090236"
         id="tspan8"><tspan
           style="font-style:italic"
           id="tspan7">forecasting</tspan></tspan></text><rect
       style="fill:#e5e5e5;fill-opacity:1;stroke:none;stroke-width:0.437999;stroke-linejoin:round;stroke-dasharray:2, 1;stroke-dashoffset:0;stroke-opacity:1"
       id="rect97"
       width="16.60388"
       height="4.4556217"
       x="89.668945"
       y="20.885878"
       rx="2"
       ry="1.9272968" /><text
       xml:space="preserve"
       transform="matrix(0.26458333,0,0,0.26458333,76.042167,9.4319896)"
       id="text64"
       style="font-style:normal;font-variant:normal;font-weight:normal;font-stretch:normal;font-size:8px;line-height:0.8;font-family:Serif;-inkscape-font-specification:Serif;text-align:center;letter-spacing:0px;word-spacing:0px;writing-mode:lr-tb;direction:ltr;white-space:pre;shape-inside:url(#rect64);display:inline;fill:#000000;fill-opacity:1;stroke:none;stroke-width:1.65543;stroke-linejoin:round;stroke-dasharray:7.55906, 3.77953;stroke-dashoffset:0;stroke-opacity:1"
       x="22.932285"
       y="0"><tspan
         x="55.333008"
         y="51.690234"
         id="tspan10"><tspan
           style="font-style:italic"
           id="tspan9">sauce-making
</tspan></tspan><tspan
         x="61.120117"
         y="58.090236"
         id="tspan12"><tspan
           style="font-style:italic"
           id="tspan11">techniques</tspan></tspan></text><text
       xml:space="preserve"
       transform="matrix(0.26458333,0,0,0.26458333,93.351059,11.532448)"
       id="text65"
       style="font-style:normal;font-variant:normal;font-weight:normal;font-stretch:normal;font-size:8px;line-height:0.8;font-family:Serif;-inkscape-font-specification:Serif;text-align:center;letter-spacing:0px;word-spacing:0px;writing-mode:lr-tb;direction:ltr;white-space:pre;shape-inside:url(#rect65);display:inline;fill:#000000;fill-opacity:1;stroke:none;stroke-width:1.65543;stroke-linejoin:round;stroke-dasharray:7.55906, 3.77953;stroke-dashoffset:0;stroke-opacity:1"
       x="22.932285"
       y="0"><tspan
         x="65.604492"
         y="51.690234"
         id="tspan14"><tspan
           style="font-style:italic"
           id="tspan13">concrete
</tspan></tspan><tspan
         x="65.936523"
         y="58.090236"
         id="tspan16"><tspan
           style="font-style:italic"
           id="tspan15">masonry</tspan></tspan></text><path
       style="fill:none;fill-opacity:1;stroke:#000000;stroke-width:0.437999;stroke-linejoin:round;stroke-dasharray:none;stroke-dashoffset:0;stroke-opacity:1;marker-end:url(#ArrowWideRounded)"
       d="m 121.88852,8.1102288 c 6.75182,-1.7462949 0.96373,-1.2022369 8.75069,-1.6390319"
       id="path98"
       sodipodi:nodetypes="cc" /><rect
       style="fill:#e5e5e5;fill-opacity:1;stroke:none;stroke-width:0.437999;stroke-linejoin:round;stroke-dasharray:2, 1;stroke-dashoffset:0;stroke-opacity:1"
       id="rect96"
       width="10.593599"
       height="4.3053651"
       x="111.89394"
       y="6.0692129"
       rx="2"
       ry="2" /><text
       xml:space="preserve"
       transform="matrix(0.26458333,0,0,0.26458333,94.947023,-5.8581893)"
       id="text66"
       style="font-style:normal;font-variant:normal;font-weight:normal;font-stretch:normal;font-size:8px;line-height:0.8;font-family:Serif;-inkscape-font-specification:Serif;text-align:center;letter-spacing:0px;word-spacing:0px;writing-mode:lr-tb;direction:ltr;white-space:pre;shape-inside:url(#rect66);display:inline;fill:#000000;fill-opacity:1;stroke:none;stroke-width:1.65543;stroke-linejoin:round;stroke-dasharray:7.55906, 3.77953;stroke-dashoffset:0;stroke-opacity:1"
       x="22.932285"
       y="0"><tspan
         x="76.325195"
         y="51.690234"
         id="tspan18"><tspan
           style="font-style:italic"
           id="tspan17">gas
</tspan></tspan><tspan
         x="67.276367"
         y="58.090236"
         id="tspan20"><tspan
           style="font-style:italic"
           id="tspan19">welding</tspan></tspan></text><text
       xml:space="preserve"
       transform="matrix(0.26458333,0,0,0.26458333,82.788163,16.71913)"
       id="text67"
       style="font-style:normal;font-variant:normal;font-weight:normal;font-stretch:normal;font-size:8px;line-height:0.8;font-family:Serif;-inkscape-font-specification:Serif;text-align:center;letter-spacing:0px;word-spacing:0px;writing-mode:lr-tb;direction:ltr;white-space:pre;shape-inside:url(#rect67);display:inline;fill:#000000;fill-opacity:1;stroke:none;stroke-width:1.65543;stroke-linejoin:round;stroke-dasharray:7.55906, 3.77953;stroke-dashoffset:0;stroke-opacity:1"
       x="22.932285"
       y="0"><tspan
         x="61.057617"
         y="51.690234"
         id="tspan22"><tspan
           style="font-style:italic"
           id="tspan21">vocabulary
</tspan></tspan><tspan
         x="57.176758"
         y="58.090236"
         id="tspan24"><tspan
           style="font-style:italic"
           id="tspan23">development</tspan></tspan></text><path
       style="fill:none;fill-opacity:1;stroke:#000000;stroke-width:0.437999;stroke-linejoin:round;stroke-dasharray:none;stroke-dashoffset:0;stroke-opacity:1;marker-end:url(#ArrowWideRounded)"
       d="m 121.88852,30.781992 c 6.75182,-2.403298 1.02326,-8.911426 8.81022,-9.348221"
       id="path95"
       sodipodi:nodetypes="cc" /><rect
       style="fill:#e5e5e5;fill-opacity:1;stroke:none;stroke-width:0.437999;stroke-linejoin:round;stroke-dasharray:2, 1;stroke-dashoffset:0;stroke-opacity:1"
       id="rect83"
       width="10.593599"
       height="4.3053651"
       x="114.0106"
       y="30.410879"
       rx="2"
       ry="2" /><text
       xml:space="preserve"
       transform="matrix(0.26458333,0,0,0.26458333,97.346233,18.896392)"
       id="text68"
       style="font-style:normal;font-variant:normal;font-weight:normal;font-stretch:normal;font-size:8px;line-height:0.8;font-family:Serif;-inkscape-font-specification:Serif;text-align:center;letter-spacing:0px;word-spacing:0px;writing-mode:lr-tb;direction:ltr;white-space:pre;shape-inside:url(#rect68);display:inline;fill:#000000;fill-opacity:1;stroke:none;stroke-width:1.65543;stroke-linejoin:round;stroke-dasharray:7.55906, 3.77953;stroke-dashoffset:0;stroke-opacity:1"
       x="22.932285"
       y="0"><tspan
         x="66.553711"
         y="51.690234"
         id="tspan26"><tspan
           style="font-style:italic"
           id="tspan25">baroque
</tspan></tspan><tspan
         x="71.381836"
         y="58.090236"
         id="tspan28"><tspan
           style="font-style:italic"
           id="tspan27">music</tspan></tspan></text><path
       style="fill:none;fill-opacity:1;stroke:#000000;stroke-width:0.437999;stroke-linejoin:round;stroke-dasharray:none;stroke-dashoffset:0;stroke-opacity:1;marker-end:url(#ArrowWideRounded)"
       d="m 106.26178,22.371944 c 25.28353,-2.353213 14.94709,-7.809542 24.43696,-8.346508"
       id="path97"
       sodipodi:nodetypes="cc" /><path
       style="fill:none;fill-opacity:1;stroke:#000000;stroke-width:0.437999;stroke-linejoin:round;stroke-dasharray:none;stroke-dashoffset:0;stroke-opacity:1;marker-end:url(#ArrowWideRounded)"
       d="m 131.36904,32.836522 h 30.34835"
       id="path103"
       sodipodi:nodetypes="cc" /><text
       xml:space="preserve"
       style="font-size:2.11667px;line-height:0.9;font-family:'Prossima Moda PERSONAL USE';-inkscape-font-specification:'Prossima Moda PERSONAL USE';text-align:start;letter-spacing:0px;word-spacing:0px;writing-mode:lr-tb;direction:ltr;text-anchor:start;fill:#c7a285;fill-opacity:1;stroke:none;stroke-width:0.43815;stroke-linejoin:round"
       x="144.94031"
       y="35.43285"
       id="text104"><tspan
         sodipodi:role="line"
         style="font-style:normal;font-variant:normal;font-weight:normal;font-stretch:normal;font-size:2.11667px;font-family:Serif;-inkscape-font-specification:Serif;text-align:center;text-anchor:middle;fill:#000000;fill-opacity:1;stroke-width:0.43815"
         x="144.94031"
         y="35.43285"
         id="tspan104">difficulty</tspan></text><path
       style="fill:#ff886b;fill-opacity:1;stroke:none;stroke-width:0.437999;stroke-linejoin:round;stroke-dasharray:none;stroke-dashoffset:0;stroke-opacity:1"
       id="path123"
       sodipodi:type="arc"
       sodipodi:cx="159.95386"
       sodipodi:cy="29.26445"
       sodipodi:rx="1.3748968"
       sodipodi:ry="1.3748968"
       sodipodi:start="0"
       sodipodi:end="6.2411949"
       sodipodi:open="true"
       sodipodi:arc-type="arc"
       d="m 161.32875,29.26445 a 1.3748968,1.3748968 0 0 1 -1.36046,1.374821 1.3748968,1.3748968 0 0 1 -1.38903,-1.345957 1.3748968,1.3748968 0 0 1 1.33131,-1.403079 1.3748968,1.3748968 0 0 1 1.41697,1.3165" /><text
       xml:space="preserve"
       style="font-size:2.11667px;line-height:0.9;font-family:'Prossima Moda PERSONAL USE';-inkscape-font-specification:'Prossima Moda PERSONAL USE';text-align:start;letter-spacing:0px;word-spacing:0px;writing-mode:lr-tb;direction:ltr;text-anchor:start;fill:#c7a285;fill-opacity:1;stroke:none;stroke-width:0.43815;stroke-linejoin:round"
       x="157.11121"
       y="35.43285"
       id="text123"><tspan
         sodipodi:role="line"
         style="font-style:normal;font-variant:normal;font-weight:normal;font-stretch:normal;font-size:2.11667px;font-family:Serif;-inkscape-font-specification:Serif;text-align:center;text-anchor:middle;fill:#000000;fill-opacity:1;stroke-width:0.43815"
         x="157.11121"
         y="35.43285"
         id="tspan123">100%</tspan></text><text
       xml:space="preserve"
       style="font-size:2.11667px;line-height:0.9;font-family:'Prossima Moda PERSONAL USE';-inkscape-font-specification:'Prossima Moda PERSONAL USE';text-align:start;letter-spacing:0px;word-spacing:0px;writing-mode:lr-tb;direction:ltr;text-anchor:start;fill:#c7a285;fill-opacity:1;stroke:none;stroke-width:0.43815;stroke-linejoin:round"
       x="133.29865"
       y="35.43285"
       id="text124"><tspan
         sodipodi:role="line"
         style="font-style:normal;font-variant:normal;font-weight:normal;font-stretch:normal;font-size:2.11667px;font-family:Serif;-inkscape-font-specification:Serif;text-align:center;text-anchor:middle;fill:#000000;fill-opacity:1;stroke-width:0.43815"
         x="133.29865"
         y="35.43285"
         id="tspan124">0%</tspan></text><path
       style="fill:#ffcc6b;fill-opacity:1;stroke:none;stroke-width:0.437999;stroke-linejoin:round;stroke-dasharray:none;stroke-dashoffset:0;stroke-opacity:1"
       id="path124"
       sodipodi:type="arc"
       sodipodi:cx="156.77882"
       sodipodi:cy="29.26445"
       sodipodi:rx="1.3748968"
       sodipodi:ry="1.3748968"
       sodipodi:start="0"
       sodipodi:end="6.2411949"
       sodipodi:open="true"
       sodipodi:arc-type="arc"
       d="m 158.15372,29.26445 a 1.3748968,1.3748968 0 0 1 -1.36046,1.374821 1.3748968,1.3748968 0 0 1 -1.38903,-1.345957 1.3748968,1.3748968 0 0 1 1.3313,-1.403079 1.3748968,1.3748968 0 0 1 1.41698,1.3165" /><path
       style="fill:#ffdb6b;fill-opacity:1;stroke:none;stroke-width:0.437999;stroke-linejoin:round;stroke-dasharray:none;stroke-dashoffset:0;stroke-opacity:1"
       id="path126"
       sodipodi:type="arc"
       sodipodi:cx="153.07463"
       sodipodi:cy="29.26445"
       sodipodi:rx="1.3748968"
       sodipodi:ry="1.3748968"
       sodipodi:start="0"
       sodipodi:end="6.2411949"
       sodipodi:open="true"
       sodipodi:arc-type="arc"
       d="m 154.44953,29.26445 a 1.3748968,1.3748968 0 0 1 -1.36047,1.374821 1.3748968,1.3748968 0 0 1 -1.38902,-1.345957 1.3748968,1.3748968 0 0 1 1.3313,-1.403079 1.3748968,1.3748968 0 0 1 1.41698,1.3165" /><path
       style="fill:#ffdb6b;fill-opacity:1;stroke:none;stroke-width:0.437999;stroke-linejoin:round;stroke-dasharray:none;stroke-dashoffset:0;stroke-opacity:1"
       id="path130"
       sodipodi:type="arc"
       sodipodi:cx="150.42876"
       sodipodi:cy="21.326954"
       sodipodi:rx="1.3748968"
       sodipodi:ry="1.3748968"
       sodipodi:start="0"
       sodipodi:end="6.2411949"
       sodipodi:open="true"
       sodipodi:arc-type="arc"
       d="m 151.80365,21.326954 a 1.3748968,1.3748968 0 0 1 -1.36046,1.374821 1.3748968,1.3748968 0 0 1 -1.38903,-1.345957 1.3748968,1.3748968 0 0 1 1.3313,-1.403079 1.3748968,1.3748968 0 0 1 1.41698,1.316499" /><path
       style="fill:#f6ec74;fill-opacity:1;stroke:none;stroke-width:0.437999;stroke-linejoin:round;stroke-dasharray:none;stroke-dashoffset:0;stroke-opacity:1"
       id="path131"
       sodipodi:type="arc"
       sodipodi:cx="147.25372"
       sodipodi:cy="21.326954"
       sodipodi:rx="1.3748968"
       sodipodi:ry="1.3748968"
       sodipodi:start="0"
       sodipodi:end="6.2411949"
       sodipodi:open="true"
       sodipodi:arc-type="arc"
       d="m 148.62862,21.326954 a 1.3748968,1.3748968 0 0 1 -1.36046,1.374821 1.3748968,1.3748968 0 0 1 -1.38903,-1.345957 1.3748968,1.3748968 0 0 1 1.3313,-1.403079 1.3748968,1.3748968 0 0 1 1.41698,1.316499" /><path
       style="fill:#caee7c;fill-opacity:1;stroke:none;stroke-width:0.437999;stroke-linejoin:round;stroke-dasharray:none;stroke-dashoffset:0;stroke-opacity:1"
       id="path132"
       sodipodi:type="arc"
       sodipodi:cx="139.31618"
       sodipodi:cy="21.326954"
       sodipodi:rx="1.3748968"
       sodipodi:ry="1.3748968"
       sodipodi:start="0"
       sodipodi:end="6.2411949"
       sodipodi:open="true"
       sodipodi:arc-type="arc"
       d="m 140.69107,21.326954 a 1.3748968,1.3748968 0 0 1 -1.36046,1.374821 1.3748968,1.3748968 0 0 1 -1.38903,-1.345957 1.3748968,1.3748968 0 0 1 1.33131,-1.403079 1.3748968,1.3748968 0 0 1 1.41697,1.316499" /><path
       style="fill:#abee7c;fill-opacity:1;stroke:none;stroke-width:0.437999;stroke-linejoin:round;stroke-dasharray:none;stroke-dashoffset:0;stroke-opacity:1"
       id="path133"
       sodipodi:type="arc"
       sodipodi:cx="136.14114"
       sodipodi:cy="6.5102849"
       sodipodi:rx="1.3748968"
       sodipodi:ry="1.3748968"
       sodipodi:start="0"
       sodipodi:end="6.2411949"
       sodipodi:open="true"
       sodipodi:arc-type="arc"
       d="m 137.51604,6.5102849 a 1.3748968,1.3748968 0 0 1 -1.36046,1.374821 1.3748968,1.3748968 0 0 1 -1.38903,-1.3459569 1.3748968,1.3748968 0 0 1 1.3313,-1.4030791 1.3748968,1.3748968 0 0 1 1.41698,1.3164995" /><path
       style="fill:#caee7c;fill-opacity:1;stroke:none;stroke-width:0.437999;stroke-linejoin:round;stroke-dasharray:none;stroke-dashoffset:0;stroke-opacity:1"
       id="path134"
       sodipodi:type="arc"
       sodipodi:cx="139.31618"
       sodipodi:cy="6.5102849"
       sodipodi:rx="1.3748968"
       sodipodi:ry="1.3748968"
       sodipodi:start="0"
       sodipodi:end="6.2411949"
       sodipodi:open="true"
       sodipodi:arc-type="arc"
       d="m 140.69107,6.5102849 a 1.3748968,1.3748968 0 0 1 -1.36046,1.374821 1.3748968,1.3748968 0 0 1 -1.38903,-1.3459569 1.3748968,1.3748968 0 0 1 1.33131,-1.4030791 1.3748968,1.3748968 0 0 1 1.41697,1.3164995" /><path
       style="fill:#ffdb6b;fill-opacity:1;stroke:none;stroke-width:0.437999;stroke-linejoin:round;stroke-dasharray:none;stroke-dashoffset:0;stroke-opacity:1"
       id="path136"
       sodipodi:type="arc"
       sodipodi:cx="149.37044"
       sodipodi:cy="13.918616"
       sodipodi:rx="1.3748968"
       sodipodi:ry="1.3748968"
       sodipodi:start="0"
       sodipodi:end="6.2411949"
       sodipodi:open="true"
       sodipodi:arc-type="arc"
       d="m 150.74533,13.918616 a 1.3748968,1.3748968 0 0 1 -1.36046,1.374821 1.3748968,1.3748968 0 0 1 -1.38903,-1.345957 1.3748968,1.3748968 0 0 1 1.33131,-1.403079 1.3748968,1.3748968 0 0 1 1.41697,1.3165" /><path
       style="fill:#f6ec74;fill-opacity:1;stroke:none;stroke-width:0.437999;stroke-linejoin:round;stroke-dasharray:none;stroke-dashoffset:0;stroke-opacity:1"
       id="path137"
       sodipodi:type="arc"
       sodipodi:cx="141.96205"
       sodipodi:cy="13.918616"
       sodipodi:rx="1.3748968"
       sodipodi:ry="1.3748968"
       sodipodi:start="0"
       sodipodi:end="6.2411949"
       sodipodi:open="true"
       sodipodi:arc-type="arc"
       d="m 143.33695,13.918616 a 1.3748968,1.3748968 0 0 1 -1.36047,1.374821 1.3748968,1.3748968 0 0 1 -1.38902,-1.345957 1.3748968,1.3748968 0 0 1 1.3313,-1.403079 1.3748968,1.3748968 0 0 1 1.41698,1.3165" /></g></svg>
