<?xml version="1.0" encoding="UTF-8" standalone="no"?>
<!-- Created with Inkscape (http://www.inkscape.org/) -->

<svg
   version="1.1"
   id="svg1"
   width="231.99873"
   height="231.99873"
   viewBox="0 0 231.99873 231.99873"
   sodipodi:docname="last_translation_benchmark.svg"
   inkscape:version="1.4.3rc (9500139e98, 2025-12-13)"
   xmlns:inkscape="http://www.inkscape.org/namespaces/inkscape"
   xmlns:sodipodi="http://sodipodi.sourceforge.net/DTD/sodipodi-0.dtd"
   xmlns="http://www.w3.org/2000/svg"
   xmlns:svg="http://www.w3.org/2000/svg">
  <defs
     id="defs1">
    <clipPath
       clipPathUnits="userSpaceOnUse"
       id="clipPath3">
      <path
         d="m -17.76,19.609333 55.9,-70.281333 97.83333,28.114667 111.808,-56.229334 69.88,42.172 L 373.56267,47.724 401.516,497.54667 -45.713333,525.66133 Z"
         id="path3" />
    </clipPath>
    <clipPath
       clipPathUnits="userSpaceOnUse"
       id="clipPath5">
      <path
         d="M -31.734667,19.609333 24.166667,-50.672 122,-22.557333 l 111.80267,-56.229334 69.88,42.172 L 359.588,47.724 387.536,497.54667 -59.688,525.66133 Z"
         id="path5" />
    </clipPath>
    <clipPath
       clipPathUnits="userSpaceOnUse"
       id="clipPath7">
      <path
         d="M 6.5266667,31.437333 43.614667,-15.193333 108.52133,3.4586667 182.69733,-33.844 l 46.36534,27.98 37.088,55.952 18.54666,298.43867 -296.718663,18.656 z"
         id="path7" />
    </clipPath>
    <clipPath
       clipPathUnits="userSpaceOnUse"
       id="clipPath9">
      <path
         d="M -56.890667,19.609333 -0.98933333,-50.672 96.844,-22.557333 l 111.80133,-56.229334 69.88134,42.172 L 334.432,47.724 362.38,497.54667 -84.844,525.66133 Z"
         id="path9" />
    </clipPath>
    <clipPath
       clipPathUnits="userSpaceOnUse"
       id="clipPath11">
      <path
         d="M -70.869333,19.609333 -14.964,-50.672 l 97.828,28.114667 111.808,-56.229334 69.88,42.172 55.90133,84.338667 27.95334,449.82267 -447.224003,28.11466 z"
         id="path11" />
    </clipPath>
    <clipPath
       clipPathUnits="userSpaceOnUse"
       id="clipPath12">
      <path
         d="M 0,0 H 199.88305 V 174 H 0 Z"
         id="path12" />
    </clipPath>
    <clipPath
       clipPathUnits="userSpaceOnUse"
       id="clipPath13">
      <path
         d="M 0,0 H 232 V 232 H 0 Z"
         id="path13" />
    </clipPath>
    <clipPath
       clipPathUnits="userSpaceOnUse"
       id="clipPath15">
      <path
         d="M 5.6453333,45.969333 35.453333,3.172 l 52.156,17.12 59.609337,-34.24 37.25466,25.677333 29.80267,51.358667 14.90667,273.90133 -238.4373367,17.12 z"
         id="path15" />
    </clipPath>
    <clipPath
       clipPathUnits="userSpaceOnUse"
       id="clipPath18">
      <path
         d="M 0,0 H 174 V 174 H 0 Z"
         id="path18" />
    </clipPath>
    <clipPath
       clipPathUnits="userSpaceOnUse"
       id="clipPath20">
      <path
         d="m -72.912,66.130667 63.568,-22.98 L 101.90133,52.344 229.036,33.964 308.5,47.749333 372.068,75.322667 403.84933,222.37467 -104.69733,231.568 Z"
         id="path20" />
    </clipPath>
    <clipPath
       clipPathUnits="userSpaceOnUse"
       id="clipPath21">
      <path
         d="m -76.614667,-130.552 53.645334,-70.28133 93.876,28.11466 107.290663,-56.22933 67.05734,42.172 53.64666,84.33867 26.82267,449.82266 -429.16133,28.10934 z"
         id="path22" />
    </clipPath>
  </defs>
  <sodipodi:namedview
     id="namedview1"
     pagecolor="#ffffff"
     bordercolor="#000000"
     borderopacity="0.25"
     inkscape:showpageshadow="2"
     inkscape:pageopacity="0.0"
     inkscape:pagecheckerboard="0"
     inkscape:deskcolor="#d1d1d1"
     inkscape:zoom="3.3931212"
     inkscape:cx="111.54921"
     inkscape:cy="106.68643"
     inkscape:window-width="2560"
     inkscape:window-height="1371"
     inkscape:window-x="0"
     inkscape:window-y="0"
     inkscape:window-maximized="1"
     inkscape:current-layer="g1"
     showgrid="false">
    <inkscape:page
       x="0"
       y="0"
       inkscape:label="1"
       id="page1"
       width="231.99873"
       height="231.99873"
       margin="0"
       bleed="0" />
  </sodipodi:namedview>
  <g
     id="g1"
     inkscape:groupmode="layer"
     inkscape:label="1">
    <path
       id="path1"
       d="M 36.380592,80.868844 73.231636,42.682807 116,57.957222 135.85674,27.408393 180.15254,50.320015 195.42695,96.143258 204.5916,204.5916 H 27.408393 Z"
       style="fill:#000000;fill-opacity:1;fill-rule:nonzero;stroke:none;stroke-width:1.33333"
       sodipodi:nodetypes="ccccccccc" />
    <g
       id="g2"
       clip-path="url(#clipPath3)"
       style="fill:#ffffff;fill-opacity:1;stroke:none;stroke-width:1.30938"
       transform="matrix(0.76372074,0,0,0.76372074,27.408393,27.408393)">
      <path
         d="m 27.867,51.609 h 22.445 c 2.493,0 4.5,2.004 4.5,4.5 v 3.649 c 0,2.496 -2.007,4.5 -4.5,4.5 H 27.867 c -2.492,0 -4.5,-2.004 -4.5,-4.5 v -3.649 c 0,-2.496 2.008,-4.5 4.5,-4.5 z"
         style="fill:#ffffff;fill-opacity:1;fill-rule:nonzero;stroke:none;stroke-width:1.30938"
         transform="scale(1.3333333)"
         id="path2" />
    </g>
    <g
       id="g4"
       clip-path="url(#clipPath5)"
       style="fill:#ffffff;fill-opacity:1;stroke:none;stroke-width:1.30938"
       transform="matrix(0.76372074,0,0,0.76372074,27.408393,27.408393)">
      <path
         d="M 60.051,67.422 70.535,46.336 81.016,67.422 Z"
         style="fill:#ffffff;fill-opacity:1;fill-rule:nonzero;stroke:none;stroke-width:1.30938"
         transform="scale(1.3333333)"
         id="path4" />
    </g>
    <g
       id="g6"
       clip-path="url(#clipPath7)"
       style="fill:#ffffff;fill-opacity:1;stroke:none;stroke-width:1.30938"
       transform="matrix(0.76372074,0,0,0.76372074,27.408393,27.408393)">
      <path
         d="m 88.344,48.059 h 13.91 v 10.492 h -13.91 z"
         style="fill:#ffffff;fill-opacity:1;fill-rule:nonzero;stroke:none;stroke-width:1.30938"
         transform="scale(1.3333333)"
         id="path6" />
    </g>
    <g
       id="g8"
       clip-path="url(#clipPath9)"
       style="fill:#ffffff;fill-opacity:1;stroke:none;stroke-width:1.30938"
       transform="matrix(0.76372074,0,0,0.76372074,27.408393,27.408393)">
      <path
         d="m 133.426,56.879 c 0,4.66 -3.754,8.433 -8.387,8.433 -4.629,0 -8.383,-3.773 -8.383,-8.433 0,-4.656 3.754,-8.434 8.383,-8.434 4.633,0 8.387,3.778 8.387,8.434 z"
         style="fill:#ffffff;fill-opacity:1;fill-rule:nonzero;stroke:none;stroke-width:1.30938"
         transform="scale(1.3333333)"
         id="path8" />
    </g>
    <g
       id="g10"
       clip-path="url(#clipPath11)"
       style="fill:#ffffff;fill-opacity:1;stroke:none;stroke-width:1.30938"
       transform="matrix(0.76372074,0,0,0.76372074,27.408393,27.408393)">
      <path
         d="m 135.523,46.336 h 15.723 v 21.086 h -15.723 z"
         style="fill:#ffffff;fill-opacity:1;fill-rule:nonzero;stroke:none;stroke-width:1.30938"
         transform="scale(1.3333333)"
         id="path10" />
    </g>
    <path
       d="M 17.265223,206.81199 23.969018,192.76 30.67679,206.81199 M 50.792153,192.76 v 14.05199 M 64.203721,192.76 h 13.410242 m 16.115363,0 v 14.05199 h 13.411564 m 14.11934,0 L 134.6718,192.76 m 14.11536,0 v 14.05199 h 13.41025 V 192.76 m 20.91429,-3.53658 -4.35139,17.58857 13.41157,-7.02533"
       style="fill:none;stroke:#ffffff;stroke-width:10.8566;stroke-linecap:square;stroke-linejoin:miter;stroke-miterlimit:4;stroke-dasharray:none;stroke-opacity:1"
       id="path16"
       sodipodi:nodetypes="ccccccccccccccccccc"
       clip-path="url(#clipPath21)"
       transform="matrix(0.84919599,0,0,0.89198909,25.882463,3.0874152)" />
    <g
       id="g20"
       clip-path="url(#clipPath20)"
       style="fill:#ffffff;fill-opacity:1;stroke:none;stroke-width:1.30938"
       transform="matrix(0.76372074,0,0,0.76372074,27.408393,27.408393)">
      <g
         id="g19"
         style="fill:#ffffff;fill-opacity:1;stroke:none;stroke-width:1.71447">
        <path
           d="m 88.344,61.66 h 23.84 v 5.172 h -23.84 z"
           style="fill:#ffffff;fill-opacity:1;fill-rule:nonzero;stroke:none;stroke-width:1.30938"
           transform="scale(1.3333333)"
           clip-path="url(#clipPath18)"
           id="path19" />
      </g>
    </g>
    <path
       style="fill:none;fill-opacity:1;stroke:#ffffff;stroke-width:9.44883;stroke-linecap:round;stroke-linejoin:round;stroke-opacity:1"
       d="m 45.165219,136.26546 c 4.539742,-11.32634 18.444336,-5.86639 20.894629,4.09379 8.493788,9.52042 22.648881,-31.37414 45.400462,-13.31603 6.50197,6.10145 4.70726,16.60932 0.3055,23.34709 -7.20163,5.17894 -21.775454,-11.65687 -13.288958,-11.9094 9.393688,-0.58972 27.684358,-0.23849 29.821928,-9.33273 5.69027,-12.56558 17.59469,0.79286 18.91942,9.09053 0.0614,8.69215 7.10012,19.36279 15.37474,10.32924 8.24674,-10.33864 5.21626,-25.75092 13.66763,-36.02612 6.10749,-1.63766 8.44912,8.96764 11.34528,12.52911"
       id="path21"
       sodipodi:nodetypes="cccccccccc" />
  </g>
</svg>
