<?xml version="1.0" encoding="UTF-8" standalone="no"?>
<!-- Created with Inkscape (http://www.inkscape.org/) -->

<svg
   width="120.84143mm"
   height="60.074932mm"
   viewBox="0 0 120.84143 60.074932"
   version="1.1"
   id="svg1"
   xml:space="preserve"
   inkscape:version="1.4 (e7c3feb100, 2024-10-09)"
   sodipodi:docname="intro_fig.svg"
   xmlns:inkscape="http://www.inkscape.org/namespaces/inkscape"
   xmlns:sodipodi="http://sodipodi.sourceforge.net/DTD/sodipodi-0.dtd"
   xmlns="http://www.w3.org/2000/svg"
   xmlns:svg="http://www.w3.org/2000/svg"><sodipodi:namedview
     id="namedview1"
     pagecolor="#ffffff"
     bordercolor="#000000"
     borderopacity="0.25"
     inkscape:showpageshadow="2"
     inkscape:pageopacity="0.0"
     inkscape:pagecheckerboard="0"
     inkscape:deskcolor="#d1d1d1"
     inkscape:document-units="mm"
     inkscape:zoom="2.1719924"
     inkscape:cx="261.97146"
     inkscape:cy="115.5621"
     inkscape:window-width="2560"
     inkscape:window-height="1011"
     inkscape:window-x="0"
     inkscape:window-y="0"
     inkscape:window-maximized="1"
     inkscape:current-layer="layer1" /><defs
     id="defs1"><marker
       style="overflow:visible"
       id="ArrowWideRounded"
       refX="0"
       refY="0"
       orient="auto-start-reverse"
       inkscape:stockid="Wide, rounded arrow"
       markerWidth="1"
       markerHeight="1"
       viewBox="0 0 1 1"
       inkscape:isstock="true"
       inkscape:collect="always"
       preserveAspectRatio="xMidYMid"><path
         style="fill:none;stroke:context-stroke;stroke-width:1;stroke-linecap:round"
         d="M 3,-3 0,0 3,3"
         transform="rotate(180,0.125,0)"
         sodipodi:nodetypes="ccc"
         id="path82" /></marker><inkscape:path-effect
       effect="simplify"
       id="path-effect81"
       is_visible="true"
       lpeversion="1.3"
       threshold="100"
       steps="1"
       smooth_angles="360"
       helper_size="0"
       simplify_individual_paths="false"
       simplify_just_coalesce="false" /><inkscape:path-effect
       effect="simplify"
       id="path-effect48"
       is_visible="true"
       lpeversion="1.3"
       threshold="100"
       steps="1"
       smooth_angles="360"
       helper_size="0"
       simplify_individual_paths="false"
       simplify_just_coalesce="false" /><inkscape:path-effect
       effect="simplify"
       id="path-effect47"
       is_visible="true"
       lpeversion="1.3"
       threshold="100"
       steps="1"
       smooth_angles="360"
       helper_size="0"
       simplify_individual_paths="false"
       simplify_just_coalesce="false" /><inkscape:path-effect
       effect="simplify"
       id="path-effect5"
       is_visible="true"
       lpeversion="1.3"
       threshold="5000"
       steps="1"
       smooth_angles="360"
       helper_size="0"
       simplify_individual_paths="false"
       simplify_just_coalesce="false" /><inkscape:path-effect
       effect="simplify"
       id="path-effect3"
       is_visible="true"
       lpeversion="1.3"
       threshold="5000"
       steps="1"
       smooth_angles="360"
       helper_size="0"
       simplify_individual_paths="false"
       simplify_just_coalesce="false" /><inkscape:path-effect
       effect="simplify"
       id="path-effect1"
       is_visible="true"
       lpeversion="1.3"
       threshold="100"
       steps="1"
       smooth_angles="360"
       helper_size="0"
       simplify_individual_paths="false"
       simplify_just_coalesce="false" /><rect
       x="103.52705"
       y="234.40086"
       width="544.33087"
       height="182.31178"
       id="rect1" /><rect
       x="103.52705"
       y="234.40086"
       width="377.20321"
       height="161.13307"
       id="rect15" /><rect
       x="103.52705"
       y="234.40086"
       width="544.33087"
       height="182.31178"
       id="rect27" /><rect
       x="103.52705"
       y="234.40086"
       width="139.33829"
       height="63.80912"
       id="rect28" /><rect
       x="103.52705"
       y="234.40086"
       width="178.79034"
       height="64.670387"
       id="rect29" /><rect
       x="103.52705"
       y="234.40086"
       width="544.33087"
       height="182.31178"
       id="rect35" /><rect
       x="103.52705"
       y="234.40086"
       width="544.33087"
       height="182.31178"
       id="rect41" /><rect
       x="103.52705"
       y="234.40086"
       width="544.33087"
       height="182.31178"
       id="rect44" /><rect
       x="103.52705"
       y="234.40086"
       width="544.33087"
       height="182.31178"
       id="rect80" /><rect
       x="103.52705"
       y="234.40086"
       width="139.33829"
       height="63.80912"
       id="rect81" /></defs><g
     inkscape:label="Layer 1"
     inkscape:groupmode="layer"
     id="layer1"
     transform="translate(-47.625,-24.657168)"><rect
       style="fill:#e4e4e4;fill-opacity:1;stroke:none;stroke-width:0.949717;stroke-miterlimit:0;stroke-dasharray:none;stroke-opacity:1"
       id="rect43"
       width="120.84143"
       height="26.58902"
       x="47.625"
       y="58.143082"
       ry="2.705852" /><rect
       style="fill:#e4e4e4;fill-opacity:1;stroke:none;stroke-width:0.92122;stroke-miterlimit:0;stroke-dasharray:none;stroke-opacity:1"
       id="rect42"
       width="120.84143"
       height="25.017658"
       x="47.625"
       y="31.155575"
       ry="2.5459411" /><rect
       style="fill:#f3a5a5;fill-opacity:1;stroke:none;stroke-width:1.23254;stroke-miterlimit:0;stroke-dasharray:none;stroke-opacity:1"
       id="rect14"
       width="10.906447"
       height="8.4327536"
       x="73.479683"
       y="61.148907" /><rect
       style="fill:#f8c5c5;fill-opacity:1;stroke:none;stroke-width:1.23254;stroke-miterlimit:0;stroke-dasharray:none;stroke-opacity:1"
       id="rect10"
       width="36.575241"
       height="8.4327536"
       x="87.177094"
       y="61.148907" /><rect
       style="fill:#fcebeb;fill-opacity:1;stroke:none;stroke-width:1.17717;stroke-miterlimit:0;stroke-dasharray:none;stroke-opacity:1"
       id="rect13"
       width="10.811165"
       height="8.3136253"
       x="126.56005"
       y="61.148907" /><rect
       style="fill:#f5a9a9;fill-opacity:1;stroke:none;stroke-width:1.17717;stroke-miterlimit:0;stroke-dasharray:none;stroke-opacity:1"
       id="rect12"
       width="1.3704284"
       height="8.3136253"
       x="164.6601"
       y="61.148907" /><rect
       style="fill:#ef8383;fill-opacity:1;stroke:none;stroke-width:0.706862;stroke-miterlimit:0;stroke-dasharray:none;stroke-opacity:1"
       id="rect11"
       width="8.4662075"
       height="8.3136253"
       x="140.62292"
       y="61.148907" /><rect
       style="fill:#ef8383;fill-opacity:1;stroke:none;stroke-width:0.999996;stroke-miterlimit:0;stroke-dasharray:none;stroke-opacity:1"
       id="rect9"
       width="36.654461"
       height="5.6783237"
       x="87.177101"
       y="46.332233" /><rect
       style="fill:#ef8383;fill-opacity:1;stroke:none;stroke-width:0.999996;stroke-miterlimit:0;stroke-dasharray:none;stroke-opacity:1"
       id="rect8"
       width="25.542803"
       height="5.6783237"
       x="140.62292"
       y="46.332233" /><rect
       style="fill:#ef8383;fill-opacity:1;stroke:none;stroke-width:1;stroke-miterlimit:0;stroke-dasharray:none;stroke-opacity:1"
       id="rect5"
       width="3.3194847"
       height="4.9030919"
       x="73.418777"
       y="35.748901" /><rect
       style="fill:#ef8383;fill-opacity:1;stroke:none;stroke-width:1;stroke-miterlimit:0;stroke-dasharray:none;stroke-opacity:1"
       id="rect6"
       width="6.2481389"
       height="4.9030919"
       x="140.62292"
       y="35.748901" /><rect
       style="fill:#ef8383;fill-opacity:1;stroke:none;stroke-width:1;stroke-miterlimit:0;stroke-dasharray:none;stroke-opacity:1"
       id="rect7"
       width="2.0274312"
       height="4.9030919"
       x="164.43546"
       y="35.748901" /><text
       xml:space="preserve"
       transform="matrix(0.26458333,0,0,0.26458333,46.371591,-25.932157)"
       id="text1"
       style="font-size:20px;line-height:1;font-family:'Liberation Serif';-inkscape-font-specification:'Liberation Serif';text-align:end;text-decoration-color:#000000;letter-spacing:0.6px;word-spacing:0px;writing-mode:lr-tb;direction:ltr;white-space:pre;shape-inside:url(#rect1);fill:#e0c016;stroke-width:10.3786;stroke-miterlimit:0"
       x="-274.9379"
       y="0"><tspan
         x="103.52734"
         y="249.69594"
         id="tspan3"><tspan
           style="font-family:'Liberation Mono';-inkscape-font-specification:'Liberation Mono';text-align:start;text-anchor:start;fill:#000000"
           id="tspan2">the examination was so easy!
</tspan></tspan><tspan
         x="103.52734"
         y="269.73908"
         id="tspan5"><tspan
           style="font-family:'Liberation Mono';-inkscape-font-specification:'Liberation Mono';text-align:start;text-anchor:start;fill:#000000"
           id="tspan4">
</tspan></tspan><tspan
         x="103.52734"
         y="289.78222"
         id="tspan7"><tspan
           style="font-family:'Liberation Mono';-inkscape-font-specification:'Liberation Mono';text-align:start;text-anchor:start;fill:#000000"
           id="tspan6">the examination was so easy!
</tspan></tspan></text><text
       xml:space="preserve"
       transform="matrix(0.26458333,0,0,0.26458333,41.609094,-37.573825)"
       id="text14"
       style="font-size:20px;line-height:1;font-family:'Liberation Serif';-inkscape-font-specification:'Liberation Serif';text-align:end;text-decoration-color:#000000;letter-spacing:-0.72000001px;word-spacing:0px;writing-mode:lr-tb;direction:ltr;white-space:pre;shape-inside:url(#rect15);fill:#e0c016;stroke-width:10.3786;stroke-miterlimit:0"
       x="-274.9379"
       y="0"><tspan
         x="118.98797"
         y="249.69594"
         id="tspan9"><tspan
           style="font-family:'Liberation Mono';-inkscape-font-specification:'Liberation Mono';fill:#000000"
           id="tspan8">Die Prüfung war relativ einfach.</tspan></tspan></text><circle
       cx="66.317947"
       cy="37.672401"
       r="3.5936193"
       fill="#fcea2b"
       id="circle1"
       style="fill:#ffdd96;fill-opacity:1;stroke-width:0.149734" /><path
       fill="none"
       stroke="#000000"
       stroke-linecap="round"
       stroke-linejoin="round"
       stroke-miterlimit="10"
       stroke-width="0.299468"
       d="m 65.243347,38.913338 c 0.35466,-0.09977 1.776475,0.08011 2.102941,0.308931"
       id="path1" /><path
       fill="none"
       stroke="#000000"
       stroke-linecap="round"
       stroke-linejoin="round"
       stroke-miterlimit="10"
       stroke-width="0.299468"
       d="m 64.266766,35.776632 c 0.191989,-0.133114 0.426233,-0.190312 0.657887,-0.160545 0.234768,0.0053 0.458875,0.09833 0.628823,0.260208"
       id="path2" /><path
       fill="none"
       stroke="#000000"
       stroke-linecap="round"
       stroke-linejoin="round"
       stroke-miterlimit="10"
       stroke-width="0.299468"
       d="m 68.271121,36.372439 c -0.361593,-0.258186 -0.801273,0 -1.232806,-0.03899"
       id="path3" /><path
       d="m 65.419539,36.92373 c 0,0.24808 -0.201363,0.449203 -0.449203,0.449203 -0.247854,0 -0.449202,-0.201138 -0.449202,-0.449203 0,-0.24784 0.201348,-0.449202 0.449202,-0.449202 0.24784,0 0.449203,0.201362 0.449203,0.449202"
       id="path4"
       style="stroke-width:0.149734" /><path
       d="m 67.965019,37.223199 c 0,0.248079 -0.201347,0.449202 -0.449202,0.449202 -0.247855,0 -0.449203,-0.201138 -0.449203,-0.449202 0,-0.24784 0.201348,-0.449203 0.449203,-0.449203 0.247855,0 0.449202,0.201363 0.449202,0.449203"
       id="path5"
       style="stroke-width:0.149734" /><path
       fill="none"
       stroke="#000000"
       stroke-linecap="round"
       stroke-linejoin="round"
       stroke-miterlimit="10"
       stroke-width="0.299468"
       d="m 69.259277,39.464674 c 0.317466,-0.519892 0.50101,-1.130583 0.502537,-1.784232 0.0044,-1.902088 -1.533891,-3.447494 -3.43583,-3.451926 -1.902087,-0.0044 -3.447464,1.533742 -3.451911,3.435829 -0.0044,1.901953 1.533757,3.447494 3.43583,3.451926 0.779965,0.0018 1.499977,-0.255806 2.07837,-0.691562"
       id="path6" /><circle
       cx="67.505127"
       cy="36.895248"
       r="1.4106305"
       fill="none"
       stroke="#000000"
       stroke-linecap="round"
       stroke-linejoin="round"
       stroke-miterlimit="10"
       stroke-width="0.299468"
       id="circle6" /><path
       fill="none"
       stroke="#000000"
       stroke-linecap="round"
       stroke-linejoin="round"
       stroke-miterlimit="10"
       stroke-width="0.299468"
       d="m 68.966382,36.917247 c 0,0 0.331316,0.08252 0.288043,0.600853 -0.04327,0.518335 -0.534416,1.192198 -0.534416,1.192198 0,0 -0.302583,0.353732 -0.218717,0.647136 0.107285,0.375309 0.646058,0.963794 0.626024,1.289196"
       id="path7" /><g
       id="g17"
       transform="matrix(0.14973414,0,0,0.14973414,2.719178,22.756972)" /><g
       id="g18"
       transform="matrix(0.14973414,0,0,0.14973414,2.719178,22.756972)" /><g
       id="g19"
       transform="matrix(0.14973414,0,0,0.14973414,2.719178,22.756972)" /><circle
       cx="66.31794"
       cy="49.314068"
       r="3.5936193"
       fill="#fcea2b"
       id="circle15"
       style="fill:#deb262;fill-opacity:1;stroke-width:0.149734" /><path
       fill="none"
       stroke="#000000"
       stroke-linecap="round"
       stroke-linejoin="round"
       stroke-miterlimit="10"
       stroke-width="0.299468"
       d="m 65.243346,50.555005 c 0.35466,-0.09977 1.776476,0.08011 2.102941,0.308931"
       id="path19" /><path
       fill="none"
       stroke="#000000"
       stroke-linecap="round"
       stroke-linejoin="round"
       stroke-miterlimit="10"
       stroke-width="0.299468"
       d="m 64.266765,47.418299 c 0.191989,-0.133114 0.426233,-0.190312 0.657887,-0.160545 0.234768,0.0053 0.458875,0.09833 0.628823,0.260208"
       id="path20" /><path
       fill="none"
       stroke="#000000"
       stroke-linecap="round"
       stroke-linejoin="round"
       stroke-miterlimit="10"
       stroke-width="0.299468"
       d="m 68.27112,48.014106 c -0.361593,-0.258186 -0.801272,0 -1.232806,-0.03899"
       id="path21" /><path
       d="m 65.419538,48.565397 c 0,0.24808 -0.201362,0.449203 -0.449202,0.449203 -0.247855,0 -0.449203,-0.201138 -0.449203,-0.449203 0,-0.24784 0.201348,-0.449202 0.449203,-0.449202 0.24784,0 0.449202,0.201362 0.449202,0.449202"
       id="path22"
       style="stroke-width:0.149734" /><path
       d="m 67.965019,48.864866 c 0,0.248079 -0.201348,0.449202 -0.449203,0.449202 -0.247855,0 -0.449202,-0.201138 -0.449202,-0.449202 0,-0.24784 0.201347,-0.449203 0.449202,-0.449203 0.247855,0 0.449203,0.201363 0.449203,0.449203"
       id="path23"
       style="stroke-width:0.149734" /><path
       fill="none"
       stroke="#000000"
       stroke-linecap="round"
       stroke-linejoin="round"
       stroke-miterlimit="10"
       stroke-width="0.299468"
       d="m 69.259276,51.106341 c 0.317466,-0.519892 0.50101,-1.130583 0.502537,-1.784232 0.0044,-1.902088 -1.533891,-3.447494 -3.435829,-3.451926 -1.902088,-0.0044 -3.447464,1.533742 -3.451911,3.435829 -0.0044,1.901953 1.533757,3.447494 3.435829,3.451926 0.779965,0.0018 1.499977,-0.255806 2.07837,-0.691562"
       id="path24" /><circle
       cx="67.505127"
       cy="48.536919"
       r="1.4106305"
       fill="none"
       stroke="#000000"
       stroke-linecap="round"
       stroke-linejoin="round"
       stroke-miterlimit="10"
       stroke-width="0.299468"
       id="circle24" /><path
       fill="none"
       stroke="#000000"
       stroke-linecap="round"
       stroke-linejoin="round"
       stroke-miterlimit="10"
       stroke-width="0.299468"
       d="m 68.966381,48.558914 c 0,0 0.331316,0.08252 0.288043,0.600853 -0.04327,0.518335 -0.534416,1.192198 -0.534416,1.192198 0,0 -0.302583,0.353732 -0.218717,0.647136 0.107285,0.375309 0.646058,0.963794 0.626024,1.289196"
       id="path25" /><rect
       style="fill:#ef8383;fill-opacity:1;stroke:none;stroke-width:0.904311;stroke-miterlimit:0;stroke-dasharray:none;stroke-opacity:1"
       id="rect45"
       width="13.856564"
       height="8.3136253"
       x="150.14795"
       y="61.148907" /><text
       xml:space="preserve"
       transform="matrix(0.26458333,0,0,0.26458333,46.371591,-0.53215781)"
       id="text27"
       style="font-size:20px;line-height:1;font-family:'Liberation Serif';-inkscape-font-specification:'Liberation Serif';text-align:end;text-decoration-color:#000000;letter-spacing:0.6px;word-spacing:0px;writing-mode:lr-tb;direction:ltr;white-space:pre;shape-inside:url(#rect27);fill:#e0c016;stroke-width:10.3786;stroke-miterlimit:0"
       x="-274.9379"
       y="0"><tspan
         x="103.52734"
         y="249.69594"
         id="tspan11"><tspan
           style="font-family:'Liberation Mono';-inkscape-font-specification:'Liberation Mono';text-align:start;text-anchor:start;fill:#000000"
           id="tspan10">the examination was so easy!</tspan></tspan></text><text
       xml:space="preserve"
       transform="matrix(0,-0.26458333,0.26458333,0,-11.624141,89.189857)"
       id="text28"
       style="font-style:normal;font-variant:normal;font-weight:normal;font-stretch:normal;font-size:16px;line-height:1;font-family:'Liberation Serif';-inkscape-font-specification:'Liberation Serif';text-align:center;text-decoration-color:#000000;letter-spacing:0.6px;word-spacing:0px;writing-mode:lr-tb;direction:ltr;white-space:pre;shape-inside:url(#rect28);fill:#e0c016;stroke-width:10.3786;stroke-miterlimit:0"
       x="-323.43866"
       y="0"><tspan
         x="146.21113"
         y="246.60232"
         id="tspan13"><tspan
           style="font-weight:bold;fill:#000000"
           id="tspan12">Human
</tspan></tspan><tspan
         x="133.59785"
         y="262.67085"
         id="tspan15"><tspan
           style="font-weight:bold;fill:#000000"
           id="tspan14">annotation</tspan></tspan></text><text
       xml:space="preserve"
       transform="matrix(0,-0.26458333,0.26458333,0,-11.624141,122.52736)"
       id="text29"
       style="font-style:normal;font-variant:normal;font-weight:normal;font-stretch:normal;font-size:16px;line-height:1;font-family:'Liberation Serif';-inkscape-font-specification:'Liberation Serif';text-align:center;text-decoration-color:#000000;letter-spacing:0.6px;word-spacing:0px;writing-mode:lr-tb;direction:ltr;white-space:pre;shape-inside:url(#rect29);fill:#e0c016;stroke-width:10.3786;stroke-miterlimit:0"
       x="-323.43866"
       y="0"><tspan
         x="149.34004"
         y="246.60232"
         id="tspan17"><tspan
           style="font-weight:bold;fill:#000000"
           id="tspan16">Word-Level
</tspan></tspan><tspan
         x="148.72832"
         y="262.67085"
         id="tspan19"><tspan
           style="font-weight:bold;fill:#000000"
           id="tspan18">Quality Est.</tspan></tspan></text><rect
       style="fill:#bdbdbd;fill-opacity:1;stroke:none;stroke-width:1.23254;stroke-miterlimit:0;stroke-dasharray:none;stroke-opacity:1"
       id="rect48"
       width="10.906447"
       height="8.4327536"
       x="73.479683"
       y="73.848907" /><g
       id="g53"
       style="fill:#bdbdbd;fill-opacity:1"
       transform="translate(0,-4.2333333)"><rect
         style="fill:#bdbdbd;fill-opacity:1;stroke:none;stroke-width:1.23254;stroke-miterlimit:0;stroke-dasharray:none;stroke-opacity:1"
         id="rect49"
         width="36.575241"
         height="8.4327536"
         x="87.177094"
         y="78.082237" /><rect
         style="fill:#bdbdbd;fill-opacity:1;stroke:none;stroke-width:1.17717;stroke-miterlimit:0;stroke-dasharray:none;stroke-opacity:1"
         id="rect50"
         width="10.811165"
         height="8.3136253"
         x="126.56005"
         y="78.082237" /><rect
         style="fill:#bdbdbd;fill-opacity:1;stroke:none;stroke-width:1.17717;stroke-miterlimit:0;stroke-dasharray:none;stroke-opacity:1"
         id="rect51"
         width="1.3704284"
         height="8.3136253"
         x="164.6601"
         y="78.082237" /><rect
         style="fill:#bdbdbd;fill-opacity:1;stroke:none;stroke-width:0.706862;stroke-miterlimit:0;stroke-dasharray:none;stroke-opacity:1"
         id="rect52"
         width="8.4662075"
         height="8.3136253"
         x="140.62292"
         y="78.082237" /><rect
         style="fill:#bdbdbd;fill-opacity:1;stroke:none;stroke-width:0.904311;stroke-miterlimit:0;stroke-dasharray:none;stroke-opacity:1"
         id="rect53"
         width="13.856564"
         height="8.3136253"
         x="150.14795"
         y="78.082237" /></g><text
       xml:space="preserve"
       transform="matrix(0.26458333,0,0,0.26458333,46.371591,12.167846)"
       id="text34"
       style="font-size:20px;line-height:1;font-family:'Liberation Serif';-inkscape-font-specification:'Liberation Serif';text-align:end;text-decoration-color:#000000;letter-spacing:0.6px;word-spacing:0px;writing-mode:lr-tb;direction:ltr;white-space:pre;shape-inside:url(#rect35);fill:#e0c016;stroke-width:10.3786;stroke-miterlimit:0"
       x="-274.9379"
       y="0"><tspan
         x="103.52734"
         y="249.69594"
         id="tspan21"><tspan
           style="font-family:'Liberation Mono';-inkscape-font-specification:'Liberation Mono';text-align:start;text-anchor:start;fill:#000000"
           id="tspan20">the examination was so easy!</tspan></tspan></text><text
       xml:space="preserve"
       transform="matrix(0.26458333,0,0,0.26458333,46.371591,4.7595093)"
       id="text44"
       style="font-size:10.6667px;line-height:1;font-family:'Liberation Serif';-inkscape-font-specification:'Liberation Serif';text-align:end;text-decoration-color:#000000;letter-spacing:0.6px;word-spacing:0px;writing-mode:lr-tb;direction:ltr;white-space:pre;shape-inside:url(#rect44);fill:#e0c016;stroke-width:10.3786;stroke-miterlimit:0"
       x="-274.9379"
       y="0"><tspan
         x="103.52734"
         y="242.53504"
         id="tspan25"><tspan
           style="font-weight:bold;font-family:'Liberation Mono';-inkscape-font-specification:'Liberation Mono';text-align:start;text-anchor:start;fill:#000000"
           id="tspan22">  0.2                  0.4     0.9   0.1    </tspan><tspan
           style="font-size:6.66667px"
           id="tspan23"> </tspan><tspan
           style="font-weight:bold;font-family:'Liberation Mono';-inkscape-font-specification:'Liberation Mono';text-align:start;text-anchor:start;fill:#000000"
           id="tspan24"> 0.1</tspan></tspan></text><path
       fill="#ffffff"
       d="m 65.433593,61.222662 v 0 a 0.7284313,0.7284313 0 0 0 -0.726329,0.730527 l 0.0089,3.097229 1.456838,-0.0042 -0.0089,-3.097228 a 0.72841249,0.72841249 0 0 0 -0.730509,-0.72633 z"
       id="path1-5"
       style="stroke-width:0.188532" /><path
       fill="#ea5a47"
       d="m 66.133521,67.124928 a 1.4744904,1.4744904 0 1 1 -1.352965,0.0013 l -0.0073,-2.533427 c 0,0 1.189971,0.20573 1.350056,-0.140594 z"
       id="path2-6"
       style="fill:#f3a5a5;fill-opacity:1;stroke-width:0.188532" /><path
       fill="#d22f27"
       d="m 65.587106,64.700895 a 1.6140795,1.6140795 0 0 0 0.600841,-0.168111 l 0.01044,2.523859 a 0.3272351,0.3272351 0 0 0 0.07224,0.20599 c 0.291615,0.357165 0.571962,0.696961 0.57346,1.217081 a 1.3603154,1.3603154 0 0 1 -1.394329,1.349368 c 0,0 1.35132,-1.023855 0.220398,-2.223889 a 0.40656939,0.40656939 0 0 1 -0.07455,-0.237695 z"
       id="path4-7"
       style="fill:#ef8383;fill-opacity:1;stroke-width:0.188532" /><path
       fill="none"
       stroke="#000000"
       stroke-linecap="round"
       stroke-linejoin="round"
       stroke-width="0.377064"
       d="m 65.770045,65.573049 a 2.3755983,2.3755983 0 0 1 -0.455634,0.03693 c -0.299765,8.64e-4 -0.542901,-0.03337 -0.543025,-0.07645"
       id="path5-52" /><path
       fill="none"
       stroke="#000000"
       stroke-linecap="round"
       stroke-linejoin="round"
       stroke-width="0.377064"
       d="m 65.773018,66.604862 a 2.3755983,2.3755983 0 0 1 -0.455635,0.03693 c -0.299764,8.64e-4 -0.542901,-0.03337 -0.543025,-0.07645"
       id="path6-5" /><path
       fill="none"
       stroke="#000000"
       stroke-linecap="round"
       stroke-linejoin="round"
       stroke-width="0.377064"
       d="m 65.629692,64.562295 a 2.4802524,2.4802524 0 0 1 -0.43051,0.01444 c -0.299765,8.63e-4 -0.430645,-0.03198 -0.430769,-0.07506"
       id="path7-4" /><path
       fill="none"
       stroke="#000000"
       stroke-linecap="round"
       stroke-linejoin="round"
       stroke-width="0.377064"
       d="m 65.7641,63.509423 a 2.3755983,2.3755983 0 0 1 -0.455634,0.03693 c -0.299765,8.63e-4 -0.542902,-0.03337 -0.543026,-0.07645"
       id="path8-7" /><path
       fill="none"
       stroke="#000000"
       stroke-linecap="round"
       stroke-linejoin="round"
       stroke-width="0.377064"
       d="m 66.127322,63.161024 0.01131,3.92737 c 0.01051,0.121384 0.07466,0.231738 0.17494,0.300941 0.885773,0.7103 0.564833,2.12876 -0.540342,2.388671 -1.105176,0.25991 -2.024684,-0.866826 -1.548337,-1.897464"
       id="path9-4"
       sodipodi:nodetypes="cccsc" /><path
       fill="none"
       stroke="#000000"
       stroke-linecap="round"
       stroke-linejoin="round"
       stroke-width="0.377064"
       d="m 64.605874,67.392596 a 0.39652063,0.39652063 0 0 0 0.170097,-0.300257 l -0.0149,-5.172469 a 0.68129831,0.68129831 0 0 1 1.362572,-0.0039 l 0.0066,1.58903"
       id="path10-4" /><path
       fill="none"
       stroke="#000000"
       stroke-linecap="round"
       stroke-linejoin="round"
       stroke-width="0.377064"
       d="m 65.761127,62.47761 a 2.3755983,2.3755983 0 0 1 -0.455634,0.03693 c -0.299765,8.63e-4 -0.542901,-0.03335 -0.543025,-0.07645"
       id="path11-3" /><g
       id="g46"
       transform="matrix(0.08665266,0,0,0.08665266,79.648324,76.535934)"><g
         id="color-7"><path
           fill="#b1cc33"
           d="m 61.5,23.3 -8.013,-8.013 -25.71,25.71 -9.26,-9.26 -8.013,8.013 17.42,17.44 z"
           id="path1-8" /></g><g
         id="line-6"><path
           fill="none"
           stroke="#000000"
           stroke-linecap="round"
           stroke-linejoin="round"
           stroke-miterlimit="10"
           stroke-width="2"
           d="M 10.5,39.76 27.92,57.2 61.5,23.31 l -8.013,-8.013 -25.71,25.71 -9.26,-9.26 z"
           id="path2-8" /></g></g><g
       id="g47"
       transform="matrix(0.06796186,0,0,0.06796186,65.705337,76.837301)"><g
         id="color-8"><path
           fill="#ea5a47"
           d="M 58.14,21.78 50.38,13.767 36.09,27.987 21.87,13.767 13.857,21.78 28.217,36 l -14.36,14.22 8.014,8.013 14.22,-14.22 14.29,14.22 7.76,-8.013 L 43.921,36 Z"
           id="path1-4" /></g><g
         id="hair" /><g
         id="skin" /><g
         id="skin-shadow" /><g
         id="line-3"><path
           fill="none"
           stroke="#000000"
           stroke-linecap="round"
           stroke-linejoin="round"
           stroke-miterlimit="10"
           stroke-width="2"
           d="M 58.14,21.78 50.38,13.767 36.09,27.987 21.87,13.767 13.857,21.78 28.207,36 l -14.35,14.22 8.014,8.013 14.22,-14.22 14.29,14.22 7.76,-8.013 L 43.921,36 Z"
           id="path2-1" /></g></g><path
       style="fill:#f3a5a5;fill-opacity:1;stroke:none;stroke-width:1;stroke-miterlimit:0;stroke-dasharray:none;stroke-opacity:1"
       d="m 63.557477,85.606164 c 0.0077,-0.01547 0.03092,-0.06186 0.02319,-0.0464 -0.0077,0.01547 -0.01546,0.03093 -0.02319,0.0464 z"
       id="path47"
       inkscape:path-effect="#path-effect47"
       inkscape:original-d="m 63.557477,85.606164 c 0.02029,-0.04061 0.0406,-0.08121 0,0 z"
       transform="translate(0,-5.2916666)" /><path
       style="fill:none;fill-opacity:1;stroke:#000000;stroke-width:0.3;stroke-linecap:round;stroke-miterlimit:0;stroke-dasharray:none;stroke-opacity:1"
       d="m 69.069648,80.185354 c -2.233292,2.233292 -4.466585,4.466585 -6.699877,6.699877"
       id="path48"
       inkscape:path-effect="#path-effect48"
       inkscape:original-d="m 69.069648,80.185354 -6.699877,6.699877"
       transform="matrix(0.81727285,0,0,0.81727285,12.648309,9.3329646)" /><g
       id="g56"
       transform="matrix(0.08665266,0,0,0.08665266,119.86499,76.535934)"><g
         id="g54"><path
           fill="#b1cc33"
           d="m 61.5,23.3 -8.013,-8.013 -25.71,25.71 -9.26,-9.26 -8.013,8.013 17.42,17.44 z"
           id="path53" /></g><g
         id="g55"><path
           fill="none"
           stroke="#000000"
           stroke-linecap="round"
           stroke-linejoin="round"
           stroke-miterlimit="10"
           stroke-width="2"
           d="M 10.5,39.76 27.92,57.2 61.5,23.31 l -8.013,-8.013 -25.71,25.71 -9.26,-9.26 z"
           id="path54" /></g></g><g
       id="g62"
       transform="matrix(0.06796186,0,0,0.06796186,146.13871,77.895635)"><g
         id="g57"><path
           fill="#ea5a47"
           d="M 58.14,21.78 50.38,13.767 36.09,27.987 21.87,13.767 13.857,21.78 28.217,36 l -14.36,14.22 8.014,8.013 14.22,-14.22 14.29,14.22 7.76,-8.013 L 43.921,36 Z"
           id="path56" /></g><g
         id="g58" /><g
         id="g59" /><g
         id="g60" /><g
         id="g61"><path
           fill="none"
           stroke="#000000"
           stroke-linecap="round"
           stroke-linejoin="round"
           stroke-miterlimit="10"
           stroke-width="2"
           d="M 58.14,21.78 50.38,13.767 36.09,27.987 21.87,13.767 13.857,21.78 28.207,36 l -14.35,14.22 8.014,8.013 14.22,-14.22 14.29,14.22 7.76,-8.013 L 43.921,36 Z"
           id="path60" /></g></g><g
       id="g68"
       transform="matrix(0.06796186,0,0,0.06796186,159.36787,77.895635)"><g
         id="g63"><path
           fill="#ea5a47"
           d="M 58.14,21.78 50.38,13.767 36.09,27.987 21.87,13.767 13.857,21.78 28.217,36 l -14.36,14.22 8.014,8.013 14.22,-14.22 14.29,14.22 7.76,-8.013 L 43.921,36 Z"
           id="path62" /></g><g
         id="g64" /><g
         id="g65" /><g
         id="g66" /><g
         id="g67"><path
           fill="none"
           stroke="#000000"
           stroke-linecap="round"
           stroke-linejoin="round"
           stroke-miterlimit="10"
           stroke-width="2"
           d="M 58.14,21.78 50.38,13.767 36.09,27.987 21.87,13.767 13.857,21.78 28.207,36 l -14.35,14.22 8.014,8.013 14.22,-14.22 14.29,14.22 7.76,-8.013 L 43.921,36 Z"
           id="path66" /></g></g><g
       id="g74"
       transform="matrix(0.06796186,0,0,0.06796186,163.6012,77.895635)"><g
         id="g69"><path
           fill="#ea5a47"
           d="M 58.14,21.78 50.38,13.767 36.09,27.987 21.87,13.767 13.857,21.78 28.217,36 l -14.36,14.22 8.014,8.013 14.22,-14.22 14.29,14.22 7.76,-8.013 L 43.921,36 Z"
           id="path68" /></g><g
         id="g70" /><g
         id="g71" /><g
         id="g72" /><g
         id="g73"><path
           fill="none"
           stroke="#000000"
           stroke-linecap="round"
           stroke-linejoin="round"
           stroke-miterlimit="10"
           stroke-width="2"
           d="M 58.14,21.78 50.38,13.767 36.09,27.987 21.87,13.767 13.857,21.78 28.207,36 l -14.35,14.22 8.014,8.013 14.22,-14.22 14.29,14.22 7.76,-8.013 L 43.921,36 Z"
           id="path72" /></g></g><g
       id="g77"
       transform="matrix(0.08665266,0,0,0.08665266,133.62332,76.535934)"><g
         id="g75"><path
           fill="#b1cc33"
           d="m 61.5,23.3 -8.013,-8.013 -25.71,25.71 -9.26,-9.26 -8.013,8.013 17.42,17.44 z"
           id="path74" /></g><g
         id="g76"><path
           fill="none"
           stroke="#000000"
           stroke-linecap="round"
           stroke-linejoin="round"
           stroke-miterlimit="10"
           stroke-width="2"
           d="M 10.5,39.76 27.92,57.2 61.5,23.31 l -8.013,-8.013 -25.71,25.71 -9.26,-9.26 z"
           id="path75" /></g></g><g
       id="g80"
       transform="matrix(0.08665266,0,0,0.08665266,61.656655,73.360935)"><g
         id="g78"><path
           fill="#b1cc33"
           d="m 61.5,23.3 -8.013,-8.013 -25.71,25.71 -9.26,-9.26 -8.013,8.013 17.42,17.44 z"
           id="path77" /></g><g
         id="g79"><path
           fill="none"
           stroke="#000000"
           stroke-linecap="round"
           stroke-linejoin="round"
           stroke-miterlimit="10"
           stroke-width="2"
           d="M 10.5,39.76 27.92,57.2 61.5,23.31 l -8.013,-8.013 -25.71,25.71 -9.26,-9.26 z"
           id="path78" /></g></g><text
       xml:space="preserve"
       transform="matrix(0.26458333,0,0,0.26458333,9.5385703,-36.927046)"
       id="text80"
       style="font-style:normal;font-variant:normal;font-weight:normal;font-stretch:normal;font-size:16px;line-height:1;font-family:'Liberation Serif';-inkscape-font-specification:'Liberation Serif';text-align:center;text-decoration-color:#000000;letter-spacing:0.6px;word-spacing:0px;writing-mode:lr-tb;direction:ltr;white-space:pre;shape-inside:url(#rect81);fill:#e0c016;stroke-width:10.3786;stroke-miterlimit:0"
       x="-323.43866"
       y="0"><tspan
         x="148.58301"
         y="246.60232"
         id="tspan27"><tspan
           style="font-weight:bold;fill:#000000"
           id="tspan26">De  En</tspan></tspan></text><path
       style="fill:#bdbdbd;fill-opacity:1;stroke:#000000;stroke-width:0.3;stroke-linecap:round;stroke-miterlimit:0;stroke-dasharray:none;stroke-opacity:1;marker-end:url(#ArrowWideRounded)"
       d="m 53.751291,27.012688 c 0.741047,0 1.482094,0 2.223141,0"
       id="path81"
       inkscape:path-effect="#path-effect81"
       inkscape:original-d="m 53.751291,27.012688 h 2.223141"
       transform="translate(0.52916663)" /></g></svg>
